<?xml version="1.0" encoding="UTF-8" standalone="no"?>
<svg width="60px" height="60px" viewBox="0 0 60 60" version="1.1" xmlns="http://www.w3.org/2000/svg" xmlns:xlink="http://www.w3.org/1999/xlink" xmlns:sketch="http://www.bohemiancoding.com/sketch/ns">
    <!-- Generator: Sketch 3.2.2 (9983) - http://www.bohemiancoding.com/sketch -->
    <title>Ananas</title>
    <desc>Created with Sketch.</desc>
    <defs></defs>
    <g id="colored" stroke="none" stroke-width="1" fill="none" fill-rule="evenodd" sketch:type="MSPage">
        <g id="Kitchen_sliced" sketch:type="MSLayerGroup" transform="translate(-120.000000, -840.000000)"></g>
        <g id="Kitchen" sketch:type="MSLayerGroup" transform="translate(-127.000000, -838.000000)" stroke-width="2" stroke-linejoin="round">
            <g id="Ananas" transform="translate(144.000000, 842.000000)" sketch:type="MSShapeGroup">
                <rect id="Rectangle-752" stroke="#314E55" stroke-linecap="round" fill="#DBCF56" x="0" y="15" width="32" height="39" rx="20"></rect>
                <path d="M22,18 L1.90024877,38.0997505" id="Line" stroke="#314E55" stroke-linecap="square" fill="#D8D8D8"></path>
                <path d="M26.5050812,20.4949188 L2.97873761,44.0212631" id="Line" stroke="#314E55" stroke-linecap="square" fill="#D8D8D8"></path>
                <path d="M29,25.0000005 L5.49479401,48.5052071" id="Line" stroke="#314E55" stroke-linecap="square" fill="#D8D8D8"></path>
                <path d="M30,31.0000005 L10.0000003,51" id="Line" stroke="#314E55" stroke-linecap="square" fill="#D8D8D8"></path>
                <g id="Group" transform="translate(16.500000, 34.500000) scale(-1, 1) translate(-16.500000, -34.500000) translate(2.000000, 18.000000)" stroke="#535353" stroke-linecap="square">
                    <path d="M21,0 L0.900248766,20.0997505" id="Line-235"></path>
                    <path d="M25.5050812,2.49491879 L1.97873761,26.0212631" id="Line-232"></path>
                    <path d="M28,7.00000054 L4.49479401,30.5052071" id="Line-233"></path>
                    <path d="M29,13.0000005 L9.00000027,33" id="Line-234"></path>
                </g>
                <path d="M13.8420781,11.9235 C14.5332359,11.423016 15.1226922,10.7892596 15.5732789,10.059628 C16.0238657,10.7892596 16.613322,11.423016 17.3044798,11.9235 C17.2084774,11.476471 17.1579219,11.0124211 17.1579219,10.5364905 C17.1579219,6.92667384 20.0663034,4.00033926 23.6539739,4.00033926 C25.0686232,4.00033926 26.3776571,4.45532362 27.4444172,5.22779021 L27.4444172,5.22779021 C26.8122651,2.28421463 24.2095827,0.0786485326 21.0949231,0.0786485326 C18.7637172,0.0786485326 16.719319,1.31419804 15.5732789,3.16997147 L15.5732789,3.16997147 C14.4272389,1.31419804 12.3828407,0.0786485326 10.0516348,0.0786485326 C6.93697518,0.0786485326 4.33429277,2.28421463 3.70214073,5.22779021 C4.76890077,4.45532362 6.07793472,4.00033926 7.49258402,4.00033926 C11.0802544,4.00033926 13.988636,6.92667384 13.988636,10.5364905 C13.988636,11.0124211 13.9380805,11.476471 13.8420781,11.9235 Z" id="Oval-700" stroke="#314E55" stroke-linecap="round" fill="#5ECC66"></path>
            </g>
        </g>
    </g>
</svg>