<?xml version="1.0" encoding="UTF-8" standalone="no"?>
<svg width="60px" height="60px" viewBox="0 0 60 60" version="1.1" xmlns="http://www.w3.org/2000/svg" xmlns:xlink="http://www.w3.org/1999/xlink" xmlns:sketch="http://www.bohemiancoding.com/sketch/ns">
    <!-- Generator: Sketch 3.2.2 (9983) - http://www.bohemiancoding.com/sketch -->
    <title>Barbeque</title>
    <desc>Created with Sketch.</desc>
    <defs></defs>
    <g id="colored" stroke="none" stroke-width="1" fill="none" fill-rule="evenodd" sketch:type="MSPage">
        <g id="Kitchen_sliced" sketch:type="MSLayerGroup" transform="translate(-240.000000, -480.000000)"></g>
        <g id="Kitchen" sketch:type="MSLayerGroup" transform="translate(-247.000000, -478.000000)" stroke="#314E55" stroke-width="2" stroke-linejoin="round">
            <g id="Barbeque" transform="translate(251.000000, 483.000000)" sketch:type="MSShapeGroup">
                <path d="M6,24 C6,30.0751322 14.954305,35 26,35 C37.045695,35 46,30.0751322 46,24 L6,24 Z" id="Oval-661" stroke-linecap="round" fill="#73C9C9"></path>
                <path d="M46,27 L52,27" id="Line" stroke-linecap="square"></path>
                <path d="M0,27 L5.09901953,27" id="Line" stroke-linecap="square"></path>
                <path d="M19,36 L7,52" id="Line" stroke-linecap="square"></path>
                <path d="M45,36 L33,52" id="Line-225" stroke-linecap="square" transform="translate(39.000000, 44.000000) scale(-1, 1) translate(-39.000000, -44.000000) "></path>
                <path d="M22.7633413,0 C22.7633413,0 17.9040421,2.25461238 21.0730777,8.56541225 C24.2421132,14.8762121 20.719664,17.0940917 20.719664,17.0940917" id="Path-1343" stroke-linecap="round"></path>
                <path d="M27.7633413,0 C27.7633413,0 22.9040421,2.25461238 26.0730777,8.56541225 C29.2421132,14.8762121 25.719664,17.0940917 25.719664,17.0940917" id="Path-1341" stroke-linecap="round"></path>
                <path d="M32.7633413,0 C32.7633413,0 27.9040421,2.25461238 31.0730777,8.56541225 C34.2421132,14.8762121 30.719664,17.0940917 30.719664,17.0940917" id="Path-1342" stroke-linecap="round"></path>
            </g>
        </g>
    </g>
</svg>