<?xml version="1.0" encoding="UTF-8" standalone="no"?>
<svg width="60px" height="60px" viewBox="0 0 60 60" version="1.1" xmlns="http://www.w3.org/2000/svg" xmlns:xlink="http://www.w3.org/1999/xlink" xmlns:sketch="http://www.bohemiancoding.com/sketch/ns">
    <!-- Generator: Sketch 3.2.2 (9983) - http://www.bohemiancoding.com/sketch -->
    <title>Blender</title>
    <desc>Created with Sketch.</desc>
    <defs></defs>
    <g id="colored" stroke="none" stroke-width="1" fill="none" fill-rule="evenodd" sketch:type="MSPage">
        <g id="Kitchen_sliced" sketch:type="MSLayerGroup" transform="translate(-480.000000, -1080.000000)"></g>
        <g id="Kitchen" sketch:type="MSLayerGroup" transform="translate(-487.000000, -1078.000000)" stroke="#314E55" stroke-width="2" stroke-linejoin="round">
            <g id="Blender" transform="translate(490.000000, 1080.000000)" sketch:type="MSShapeGroup">
                <path d="M36,44 L50,44 L52,54 L34,54 L36,44 Z" id="Rectangle-774" stroke-linecap="round" fill="#D8D8D8"></path>
                <rect id="Rectangle-775" stroke-linecap="round" fill="#D8D8D8" x="40" y="32" width="6" height="14"></rect>
                <rect id="Rectangle-776" stroke-linecap="round" fill="#D8D8D8" x="35" y="3" width="16" height="31" rx="4"></rect>
                <rect id="Rectangle-777" stroke-linecap="round" fill="#E45E57" x="33" y="0" width="20" height="5" rx="10"></rect>
                <path d="M43,28 L43,25" id="Line" stroke-linecap="square"></path>
                <circle id="Oval-733" stroke-linecap="round" fill="#5ECB66" cx="43" cy="18" r="3"></circle>
                <path d="M17,50 C19.209139,50 21,48.209139 21,46" id="Oval-734" stroke-linecap="round"></path>
                <path d="M21,11 C23.209139,11 25,9.209139 25,7" id="Oval-734" stroke-linecap="round" transform="translate(23.000000, 9.000000) rotate(-180.000000) translate(-23.000000, -9.000000) "></path>
                <path d="M16,50 L12,50" id="Line" stroke-linecap="square"></path>
                <path d="M21,46 L21,11.9852973" id="Line" stroke-linecap="square"></path>
                <path d="M25,7 L36,7" id="Line" stroke-linecap="square"></path>
                <path d="M5,55 C8.3137085,55 11,52.7614237 11,50 C11,47.2385763 8.3137085,45 5,45 L5,55 Z" id="Oval-734" stroke-linecap="round" fill="#D8D8D8"></path>
                <path d="M5,48 L0,48" id="Line" stroke-linecap="square"></path>
                <path d="M5,52 L0,52" id="Line" stroke-linecap="square"></path>
            </g>
        </g>
    </g>
</svg>