<?xml version="1.0" encoding="UTF-8" standalone="no"?>
<svg width="60px" height="60px" viewBox="0 0 60 60" version="1.1" xmlns="http://www.w3.org/2000/svg" xmlns:xlink="http://www.w3.org/1999/xlink" xmlns:sketch="http://www.bohemiancoding.com/sketch/ns">
    <!-- Generator: Sketch 3.2.2 (9983) - http://www.bohemiancoding.com/sketch -->
    <title>Cakeflag</title>
    <desc>Created with Sketch.</desc>
    <defs></defs>
    <g id="colored" stroke="none" stroke-width="1" fill="none" fill-rule="evenodd" sketch:type="MSPage">
        <g id="Kitchen_sliced" sketch:type="MSLayerGroup" transform="translate(-840.000000, -1560.000000)"></g>
        <g id="Kitchen" sketch:type="MSLayerGroup" transform="translate(-847.000000, -1558.000000)" stroke="#314E55" stroke-width="2" stroke-linejoin="round">
            <g id="Cakeflag" transform="translate(854.000000, 1561.000000)" sketch:type="MSShapeGroup">
                <rect id="Rectangle-924" stroke-linecap="round" fill="#EA86A5" x="0" y="37" width="44" height="8" rx="8"></rect>
                <rect id="Rectangle-925" stroke-linecap="round" fill="#D8D8D8" x="5" y="43" width="34" height="12"></rect>
                <path d="M40,38 C40,28.0588745 31.9411255,20 22,20 C12.0588745,20 4,28.0588745 4,38 L40,38 Z" id="Oval-785" stroke-linecap="round" fill="#E9E7D1"></path>
                <rect id="Rectangle-926" stroke-linecap="round" x="12" y="28" width="2" height="2"></rect>
                <rect id="Rectangle-927" stroke-linecap="round" x="18" y="23" width="2" height="2"></rect>
                <rect id="Rectangle-928" stroke-linecap="round" x="17" y="33" width="2" height="2"></rect>
                <rect id="Rectangle-929" stroke-linecap="round" x="23" y="26" width="2" height="2"></rect>
                <rect id="Rectangle-930" stroke-linecap="round" x="24" y="32" width="2" height="2"></rect>
                <rect id="Rectangle-931" stroke-linecap="round" x="31" y="29" width="2" height="2"></rect>
                <path d="M22,20 L22,0" id="Line" stroke-linecap="square"></path>
                <rect id="Rectangle-932" stroke-linecap="round" fill="#73C9C9" x="21" y="2" width="15" height="10"></rect>
            </g>
        </g>
    </g>
</svg>