<?xml version="1.0" encoding="UTF-8" standalone="no"?>
<svg width="60px" height="60px" viewBox="0 0 60 60" version="1.1" xmlns="http://www.w3.org/2000/svg" xmlns:xlink="http://www.w3.org/1999/xlink" xmlns:sketch="http://www.bohemiancoding.com/sketch/ns">
    <!-- Generator: Sketch 3.2.2 (9983) - http://www.bohemiancoding.com/sketch -->
    <title>Chickenmeat</title>
    <desc>Created with Sketch.</desc>
    <defs></defs>
    <g id="colored" stroke="none" stroke-width="1" fill="none" fill-rule="evenodd" sketch:type="MSPage">
        <g id="Kitchen_sliced" sketch:type="MSLayerGroup" transform="translate(-840.000000, -840.000000)"></g>
        <g id="Kitchen" sketch:type="MSLayerGroup" transform="translate(-847.000000, -838.000000)" stroke="#314E55" stroke-width="2" stroke-linecap="round" stroke-linejoin="round">
            <g id="Chickenmeat" transform="translate(875.526912, 866.146447) rotate(-45.000000) translate(-875.526912, -866.146447) translate(859.526912, 835.146447)" sketch:type="MSShapeGroup">
                <ellipse id="Oval-712" fill="#EA86A5" cx="16" cy="41.5" rx="16" ry="20.5"></ellipse>
                <path d="M4,41.5 C4,50.0604136 9.372583,57 16,57" id="Oval-714"></path>
                <path d="M13,8.87398251 L13,22 L20,22 L20,8.87398251 C21.7252272,8.42993972 23,6.86383943 23,5 C23,2.790861 21.209139,1 19,1 C18.0540533,1 17.184799,1.32835916 16.5,1.87731452 C15.815201,1.32835916 14.9459467,1 14,1 C11.790861,1 10,2.790861 10,5 C10,6.86383943 11.2747728,8.42993972 13,8.87398251 Z" id="Rectangle-762" fill="#EAEAEA"></path>
            </g>
        </g>
    </g>
</svg>