<?xml version="1.0" encoding="UTF-8" standalone="no"?>
<svg width="60px" height="60px" viewBox="0 0 60 60" version="1.1" xmlns="http://www.w3.org/2000/svg" xmlns:xlink="http://www.w3.org/1999/xlink" xmlns:sketch="http://www.bohemiancoding.com/sketch/ns">
    <!-- Generator: Sketch 3.2.2 (9983) - http://www.bohemiancoding.com/sketch -->
    <title>Chopper</title>
    <desc>Created with Sketch.</desc>
    <defs></defs>
    <g id="colored" stroke="none" stroke-width="1" fill="none" fill-rule="evenodd" sketch:type="MSPage">
        <g id="Kitchen_sliced" sketch:type="MSLayerGroup" transform="translate(0.000000, -1560.000000)"></g>
        <g id="Kitchen" sketch:type="MSLayerGroup" transform="translate(-7.000000, -1558.000000)" stroke="#314E55" stroke-width="2" stroke-linecap="round" stroke-linejoin="round">
            <g id="Chopper" transform="translate(23.000000, 1562.000000)" sketch:type="MSShapeGroup">
                <path d="M4,9 L26,9 L30,55 L1.11022302e-16,55 L4,9 Z" id="Rectangle-858" fill="#D8D8D8"></path>
                <path d="M8,10 L8,0 L22,0 L22,10" id="Rectangle-859"></path>
                <rect id="Rectangle-859" x="8" y="14" width="2" height="2"></rect>
                <rect id="Rectangle-860" x="12" y="14" width="2" height="2"></rect>
                <rect id="Rectangle-861" x="16" y="14" width="2" height="2"></rect>
                <rect id="Rectangle-862" x="20" y="14" width="2" height="2"></rect>
                <rect id="Rectangle-866" x="10" y="19" width="2" height="2"></rect>
                <rect id="Rectangle-863" x="14" y="19" width="2" height="2"></rect>
                <rect id="Rectangle-864" x="18" y="19" width="2" height="2"></rect>
                <rect id="Rectangle-873" x="10" y="29" width="2" height="2"></rect>
                <rect id="Rectangle-865" x="14" y="29" width="2" height="2"></rect>
                <rect id="Rectangle-867" x="18" y="29" width="2" height="2"></rect>
                <rect id="Rectangle-872" x="6" y="24" width="2" height="2"></rect>
                <rect id="Rectangle-868" x="10" y="24" width="2" height="2"></rect>
                <rect id="Rectangle-869" x="14" y="24" width="2" height="2"></rect>
                <rect id="Rectangle-870" x="18" y="24" width="2" height="2"></rect>
                <rect id="Rectangle-871" x="22" y="24" width="2" height="2"></rect>
                <rect id="Rectangle-881" x="10" y="39" width="2" height="2"></rect>
                <rect id="Rectangle-874" x="14" y="39" width="2" height="2"></rect>
                <rect id="Rectangle-875" x="18" y="39" width="2" height="2"></rect>
                <rect id="Rectangle-876" x="6" y="34" width="2" height="2"></rect>
                <rect id="Rectangle-877" x="10" y="34" width="2" height="2"></rect>
                <rect id="Rectangle-878" x="14" y="34" width="2" height="2"></rect>
                <rect id="Rectangle-879" x="18" y="34" width="2" height="2"></rect>
                <rect id="Rectangle-880" x="22" y="34" width="2" height="2"></rect>
                <rect id="Rectangle-884" x="6" y="44" width="2" height="2"></rect>
                <rect id="Rectangle-885" x="10" y="44" width="2" height="2"></rect>
                <rect id="Rectangle-886" x="14" y="44" width="2" height="2"></rect>
                <rect id="Rectangle-887" x="18" y="44" width="2" height="2"></rect>
                <rect id="Rectangle-891" x="10" y="49" width="2" height="2"></rect>
                <rect id="Rectangle-889" x="14" y="49" width="2" height="2"></rect>
                <rect id="Rectangle-890" x="18" y="49" width="2" height="2"></rect>
                <rect id="Rectangle-888" x="22" y="44" width="2" height="2"></rect>
            </g>
        </g>
    </g>
</svg>