<?xml version="1.0" encoding="UTF-8" standalone="no"?>
<svg width="60px" height="60px" viewBox="0 0 60 60" version="1.1" xmlns="http://www.w3.org/2000/svg" xmlns:xlink="http://www.w3.org/1999/xlink" xmlns:sketch="http://www.bohemiancoding.com/sketch/ns">
    <!-- Generator: Sketch 3.2.2 (9983) - http://www.bohemiancoding.com/sketch -->
    <title>Coffemake</title>
    <desc>Created with Sketch.</desc>
    <defs></defs>
    <g id="colored" stroke="none" stroke-width="1" fill="none" fill-rule="evenodd" sketch:type="MSPage">
        <g id="Kitchen_sliced" sketch:type="MSLayerGroup" transform="translate(-480.000000, -120.000000)"></g>
        <g id="Kitchen" sketch:type="MSLayerGroup" transform="translate(-487.000000, -118.000000)" stroke="#314E55" stroke-width="2" stroke-linecap="round" stroke-linejoin="round">
            <g id="Coffemake" transform="translate(492.000000, 128.000000)" sketch:type="MSShapeGroup">
                <path d="M5,11 L38,11 L42.8181744,39.1060173 C43.4708787,42.9134588 40.8714148,46 36.9934531,46 L6.00654687,46 C2.13693788,46 -0.470172042,42.9093369 0.181825606,39.1060173 L5,11 Z" id="Rectangle-678" fill="#EAEAEA"></path>
                <path d="M8.82050625,20.0520009 L34.1795902,20.0520009 L37.347274,35.0950438 C38.1442534,38.8798265 35.6605476,41.9479991 31.7924386,41.9479991 L11.2076579,41.9479991 C7.34282764,41.9479991 4.85572256,38.8803991 5.65282249,35.0950438 L8.82050625,20.0520009 Z" id="Rectangle-680" fill="#E4AD40"></path>
                <circle id="Oval-632" fill="#D8D8D8" cx="29" cy="29" r="2"></circle>
                <circle id="Oval-633" fill="#D8D8D8" cx="17" cy="35" r="2"></circle>
                <path d="M2.114223,2.78555751 C1.49885463,1.24713658 2.34083335,0 3.99821673,0 L39.0017833,0 C40.6576526,0 41.5014849,1.24628767 40.885777,2.78555751 L39.114223,7.21444249 C38.4988546,8.75286342 36.6654891,10 34.9986425,10 L8.00135749,10 C6.34375352,10 4.50148493,8.75371233 3.885777,7.21444249 L2.114223,2.78555751 Z" id="Rectangle-679" fill="#D8D8D8"></path>
                <path d="M38.6590701,15.4215424 C38.6590701,15.4215424 43.7908269,7.32462178 46.7350913,10.1567111 C49.6793557,12.9888004 45.4324823,23.6991907 41.6955477,34.2202013" id="Path-1387"></path>
            </g>
        </g>
    </g>
</svg>