<?xml version="1.0" encoding="UTF-8" standalone="no"?>
<svg width="60px" height="60px" viewBox="0 0 60 60" version="1.1" xmlns="http://www.w3.org/2000/svg" xmlns:xlink="http://www.w3.org/1999/xlink" xmlns:sketch="http://www.bohemiancoding.com/sketch/ns">
    <!-- Generator: Sketch 3.2.2 (9983) - http://www.bohemiancoding.com/sketch -->
    <title>Drink</title>
    <desc>Created with Sketch.</desc>
    <defs></defs>
    <g id="colored" stroke="none" stroke-width="1" fill="none" fill-rule="evenodd" sketch:type="MSPage">
        <g id="Kitchen_sliced" sketch:type="MSLayerGroup" transform="translate(-720.000000, -1560.000000)"></g>
        <g id="Kitchen" sketch:type="MSLayerGroup" transform="translate(-727.000000, -1558.000000)" stroke="#314E55" stroke-width="2" stroke-linecap="round" stroke-linejoin="round">
            <g id="Drink" transform="translate(734.000000, 1560.000000)" sketch:type="MSShapeGroup">
                <rect id="Rectangle-920" fill="#D8D8D8" x="0" y="26" width="47" height="4"></rect>
                <path d="M5,29 L42,29 L37,58 L10,58 L5,29 Z" id="Rectangle-921" fill="#F28544"></path>
                <path d="M16,26 L16,22.4919773 C16,19.4203651 18.1356802,16.8469884 21,16.1725135 L21,4 L26,4 L26,16.1724407 C28.8662709,16.8471793 31,19.4228796 31,22.4919773 L31,26 L16,26 Z" id="Rectangle-922" fill="#E65F58"></path>
                <rect id="Rectangle-923" fill="#D8D8D8" x="19" y="0" width="9" height="4"></rect>
                <circle id="Oval-783" cx="19" cy="47" r="3"></circle>
                <circle id="Oval-783" cx="28" cy="45" r="3"></circle>
                <path d="M19.3861973,43.9315367 C19.3861973,43.9315367 22.236957,39.043512 21.1304564,36.5119675 C20.0239557,33.980423 26.1488553,42.1624125 26.1488553,42.1624125" id="Path-1824"></path>
            </g>
        </g>
    </g>
</svg>