<?xml version="1.0" encoding="UTF-8" standalone="no"?>
<svg width="60px" height="60px" viewBox="0 0 60 60" version="1.1" xmlns="http://www.w3.org/2000/svg" xmlns:xlink="http://www.w3.org/1999/xlink" xmlns:sketch="http://www.bohemiancoding.com/sketch/ns">
    <!-- Generator: Sketch 3.2.2 (9983) - http://www.bohemiancoding.com/sketch -->
    <title>Eggs</title>
    <desc>Created with Sketch.</desc>
    <defs></defs>
    <g id="colored" stroke="none" stroke-width="1" fill="none" fill-rule="evenodd" sketch:type="MSPage">
        <g id="Kitchen_sliced" sketch:type="MSLayerGroup" transform="translate(0.000000, -960.000000)"></g>
        <g id="Kitchen" sketch:type="MSLayerGroup" transform="translate(-7.000000, -958.000000)" stroke="#314E55" stroke-width="2" stroke-linecap="round" stroke-linejoin="round">
            <g id="Eggs" transform="translate(10.000000, 969.000000)" sketch:type="MSShapeGroup">
                <path d="M22.8178815,23 C24.1906462,20.6117495 25,17.6750488 25,14.5 C25,6.49187113 19.8512746,0 13.5,0 C7.14872538,0 2,6.49187113 2,14.5 C2,17.6750488 2.80935385,20.6117495 4.18211851,23 L22.8178815,23 Z M49.8178815,23 C51.1906462,20.6117495 52,17.6750488 52,14.5 C52,6.49187113 46.8512746,0 40.5,0 C34.1487254,0 29,6.49187113 29,14.5 C29,17.6750488 29.8093538,20.6117495 31.1821185,23 L49.8178815,23 Z" id="Oval-715" fill="#E9E7D1"></path>
                <path d="M13.5,4 C9.35786438,4 6,8.70101013 6,14.5" id="Oval-717"></path>
                <path d="M40.5,4 C36.3578644,4 33,8.70101013 33,14.5" id="Oval-718"></path>
                <rect id="Rectangle-764" fill="#81A4E3" x="0" y="22" width="54" height="8"></rect>
                <path d="M4,28 L23,28 L22,35 L5,35 L4,28 Z" id="Rectangle-765" fill="#E4AD40"></path>
                <path d="M31,28 L50,28 L49,35 L32,35 L31,28 Z" id="Rectangle-765" fill="#E4AD40"></path>
            </g>
        </g>
    </g>
</svg>