<?xml version="1.0" encoding="UTF-8" standalone="no"?>
<svg width="60px" height="60px" viewBox="0 0 60 60" version="1.1" xmlns="http://www.w3.org/2000/svg" xmlns:xlink="http://www.w3.org/1999/xlink" xmlns:sketch="http://www.bohemiancoding.com/sketch/ns">
    <!-- Generator: Sketch 3.2.2 (9983) - http://www.bohemiancoding.com/sketch -->
    <title>Fishdish</title>
    <desc>Created with Sketch.</desc>
    <defs></defs>
    <g id="colored" stroke="none" stroke-width="1" fill="none" fill-rule="evenodd" sketch:type="MSPage">
        <g id="Kitchen_sliced" sketch:type="MSLayerGroup" transform="translate(-480.000000, 0.000000)"></g>
        <g id="Kitchen" sketch:type="MSLayerGroup" transform="translate(-487.000000, 2.000000)" stroke="#314E55" stroke-width="2" stroke-linejoin="round">
            <g id="Fishdish" transform="translate(489.000000, 0.000000)" sketch:type="MSShapeGroup">
                <circle id="Oval-624" stroke-linecap="round" fill="#D8D8D8" cx="28" cy="28" r="28"></circle>
                <circle id="Oval-625" stroke-linecap="round" fill="#EAEAEA" cx="28" cy="28" r="21"></circle>
                <path d="M34.9676312,28 C32.6288399,24.3944517 28.5681802,22.009286 23.9504351,22.009286 C19.3326901,22.009286 15.2720304,24.3944517 12.9332391,28 C15.2720304,31.6055483 19.3326901,33.990714 23.9504351,33.990714 C28.5681802,33.990714 32.6288399,31.6055483 34.9676312,28 Z" id="Oval-623" stroke-linecap="round" fill="#F58CAC"></path>
                <path d="M41.0667609,23.7209186 L41.0667609,32.8496256 L34.7907748,28.2852721 L41.0667609,23.7209186 Z" id="Triangle-24" stroke-linecap="round" fill="#F58CAC"></path>
                <path d="M19.6048074,22.7082826 C19.6048074,22.7082826 23.0482071,27.5118715 19.5271512,32.7063933" id="Path-1340" stroke-linecap="round" fill="#D8D8D8"></path>
                <path d="M2,53 L25,38" id="Line" stroke-linecap="square" fill="#D8D8D8"></path>
                <path d="M5,56 L21,37" id="Line" stroke-linecap="square" fill="#D8D8D8"></path>
            </g>
        </g>
    </g>
</svg>