<?xml version="1.0" encoding="UTF-8" standalone="no"?>
<svg width="60px" height="60px" viewBox="0 0 60 60" version="1.1" xmlns="http://www.w3.org/2000/svg" xmlns:xlink="http://www.w3.org/1999/xlink" xmlns:sketch="http://www.bohemiancoding.com/sketch/ns">
    <!-- Generator: Sketch 3.2.2 (9983) - http://www.bohemiancoding.com/sketch -->
    <title>Fish</title>
    <desc>Created with Sketch.</desc>
    <defs></defs>
    <g id="colored" stroke="none" stroke-width="1" fill="none" fill-rule="evenodd" sketch:type="MSPage">
        <g id="Kitchen_sliced" sketch:type="MSLayerGroup" transform="translate(-360.000000, 0.000000)"></g>
        <g id="Kitchen" sketch:type="MSLayerGroup" transform="translate(-367.000000, 2.000000)" stroke="#314E55" stroke-width="2" stroke-linejoin="round">
            <g id="Fish" transform="translate(371.000000, 4.000000)" sketch:type="MSShapeGroup">
                <path d="M39.3099784,33.5 C35.2107494,27.18051 28.0935799,23 20,23 C11.9064201,23 4.78925058,27.18051 0.690021582,33.5 C4.78925058,39.81949 11.9064201,44 20,44 C28.0935799,44 35.2107494,39.81949 39.3099784,33.5 Z" id="Oval-622" stroke-linecap="round" fill="#C59981"></path>
                <path d="M50,26 L50,42 L39,34 L50,26 Z" id="Triangle-23" stroke-linecap="round" fill="#C59981"></path>
                <path d="M8,31 L10,30" id="Line" stroke-linecap="square" fill="#D8D8D8"></path>
                <path d="M12.3833634,24.2251401 C12.3833634,24.2251401 18.4186536,32.6444509 12.2472545,41.7489549" id="Path-1339" stroke-linecap="round"></path>
                <path d="M21.7633413,0 C21.7633413,0 16.9040421,2.25461238 20.0730777,8.56541225 C23.2421132,14.8762121 19.719664,17.0940917 19.719664,17.0940917" id="Path-1334" stroke-linecap="round" fill="#D8D8D8"></path>
                <path d="M26.7633413,0 C26.7633413,0 21.9040421,2.25461238 25.0730777,8.56541225 C28.2421132,14.8762121 24.719664,17.0940917 24.719664,17.0940917" id="Path-1334" stroke-linecap="round" fill="#D8D8D8"></path>
                <path d="M31.7633413,0 C31.7633413,0 26.9040421,2.25461238 30.0730777,8.56541225 C33.2421132,14.8762121 29.719664,17.0940917 29.719664,17.0940917" id="Path-1334" stroke-linecap="round" fill="#D8D8D8"></path>
            </g>
        </g>
    </g>
</svg>