<?xml version="1.0" encoding="UTF-8" standalone="no"?>
<svg width="60px" height="60px" viewBox="0 0 60 60" version="1.1" xmlns="http://www.w3.org/2000/svg" xmlns:xlink="http://www.w3.org/1999/xlink" xmlns:sketch="http://www.bohemiancoding.com/sketch/ns">
    <!-- Generator: Sketch 3.2.2 (9983) - http://www.bohemiancoding.com/sketch -->
    <title>Fridge</title>
    <desc>Created with Sketch.</desc>
    <defs></defs>
    <g id="colored" stroke="none" stroke-width="1" fill="none" fill-rule="evenodd" sketch:type="MSPage">
        <g id="Kitchen_sliced" sketch:type="MSLayerGroup" transform="translate(-120.000000, -1440.000000)"></g>
        <g id="Kitchen" sketch:type="MSLayerGroup" transform="translate(-127.000000, -1438.000000)" stroke-width="2" stroke-linejoin="round">
            <g id="Fridge" transform="translate(135.000000, 1440.000000)" sketch:type="MSShapeGroup">
                <rect id="Rectangle-807" stroke="#314E55" stroke-linecap="round" fill="#D8D8D8" x="0" y="16" width="25" height="39" rx="2"></rect>
                <rect id="Rectangle-807" stroke="#314E55" stroke-linecap="round" fill="#EAEAEA" x="0" y="0" width="25" height="18" rx="2"></rect>
                <path d="M20,6 L20,12" id="Line" stroke="#314E55" stroke-linecap="square"></path>
                <path d="M20,24 L20,30" id="Line" stroke="#314E55" stroke-linecap="square"></path>
                <path d="M18,54 L18,56" id="Line" stroke="#314E55" stroke-linecap="square"></path>
                <path d="M7,54 L7,56" id="Line" stroke="#314E55" stroke-linecap="square"></path>
                <g id="Group" transform="translate(37.000000, 16.000000)" stroke="#535353" stroke-linecap="round">
                    <path d="M3,0 L3,17.0312195" id="Line"></path>
                    <path d="M0,0 L3,3" id="Line"></path>
                    <path d="M0,14 L3,17" id="Line" transform="translate(1.500000, 15.500000) scale(-1, 1) translate(-1.500000, -15.500000) "></path>
                    <path d="M3,0 L6,3" id="Line" transform="translate(4.500000, 1.500000) scale(-1, 1) translate(-4.500000, -1.500000) "></path>
                    <path d="M3,14 L6,17" id="Line"></path>
                </g>
                <g id="Group-6" transform="translate(40.000000, 24.000000) rotate(-120.000000) translate(-40.000000, -24.000000) translate(37.000000, 15.000000)" stroke="#535353" stroke-linecap="round">
                    <path d="M3,0 L3,17.0312195" id="Line"></path>
                    <path d="M0,0 L3,3" id="Line"></path>
                    <path d="M0,14 L3,17" id="Line" transform="translate(1.500000, 15.500000) scale(-1, 1) translate(-1.500000, -15.500000) "></path>
                    <path d="M3,0 L6,3" id="Line" transform="translate(4.500000, 1.500000) scale(-1, 1) translate(-4.500000, -1.500000) "></path>
                    <path d="M3,14 L6,17" id="Line"></path>
                </g>
                <g id="Group-7" transform="translate(40.000000, 25.000000) rotate(-60.000000) translate(-40.000000, -25.000000) translate(37.000000, 16.000000)" stroke="#535353" stroke-linecap="round">
                    <path d="M3,0 L3,17.0312195" id="Line"></path>
                    <path d="M0,0 L3,3" id="Line"></path>
                    <path d="M0,14 L3,17" id="Line" transform="translate(1.500000, 15.500000) scale(-1, 1) translate(-1.500000, -15.500000) "></path>
                    <path d="M3,0 L6,3" id="Line" transform="translate(4.500000, 1.500000) scale(-1, 1) translate(-4.500000, -1.500000) "></path>
                    <path d="M3,14 L6,17" id="Line"></path>
                </g>
            </g>
        </g>
    </g>
</svg>