<?xml version="1.0" encoding="UTF-8" standalone="no"?>
<svg width="60px" height="60px" viewBox="0 0 60 60" version="1.1" xmlns="http://www.w3.org/2000/svg" xmlns:xlink="http://www.w3.org/1999/xlink" xmlns:sketch="http://www.bohemiancoding.com/sketch/ns">
    <!-- Generator: Sketch 3.2.2 (9983) - http://www.bohemiancoding.com/sketch -->
    <title>Hotsoup</title>
    <desc>Created with Sketch.</desc>
    <defs></defs>
    <g id="colored" stroke="none" stroke-width="1" fill="none" fill-rule="evenodd" sketch:type="MSPage">
        <g id="Kitchen_sliced" sketch:type="MSLayerGroup" transform="translate(-720.000000, -1320.000000)"></g>
        <g id="Kitchen" sketch:type="MSLayerGroup" transform="translate(-727.000000, -1318.000000)" stroke="#314E55" stroke-width="2" stroke-linecap="round" stroke-linejoin="round">
            <g id="Hotsoup" transform="translate(730.000000, 1320.000000)" sketch:type="MSShapeGroup">
                <path d="M17.1613866,37 L17,37 L17,42 L37,42 L37,37.2506341 C34.0056943,38.3824715 30.7724703,39 27.3999882,39 C23.7863704,39 20.3326367,38.2910066 17.1613898,37.0000013 Z" id="Rectangle-803" fill="#81A4E3"></path>
                <path d="M54.7999765,13.1337373 C52.1315566,26.2709587 40.8778433,36.1337373 27.3999882,36.1337373 C13.9221332,36.1337373 2.6684199,26.2709587 -1.13686838e-13,13.1337373 L54.7999765,13.1337373 L54.7999765,13.1337373 Z" id="Oval-763" fill="#81A4E3"></path>
                <ellipse id="Oval-761" fill="#D8D8D8" cx="11" cy="51" rx="8" ry="5"></ellipse>
                <path d="M19,51 L50.0161247,51" id="Line"></path>
                <path d="M27,0.0940917357 C27,0.0940917357 23.4830264,1.41303422 25.7766523,5.10483602 C28.0702782,8.79663783 25.5208651,10.0940917 25.5208651,10.0940917" id="Path-1351"></path>
                <path d="M32,0.0940917357 C32,0.0940917357 28.4830264,1.41303422 30.7766523,5.10483602 C33.0702782,8.79663783 30.5208651,10.0940917 30.5208651,10.0940917" id="Path-1351"></path>
            </g>
        </g>
    </g>
</svg>