<?xml version="1.0" encoding="UTF-8" standalone="no"?>
<svg width="60px" height="60px" viewBox="0 0 60 60" version="1.1" xmlns="http://www.w3.org/2000/svg" xmlns:xlink="http://www.w3.org/1999/xlink" xmlns:sketch="http://www.bohemiancoding.com/sketch/ns">
    <!-- Generator: Sketch 3.2.2 (9983) - http://www.bohemiancoding.com/sketch -->
    <title>Hottea</title>
    <desc>Created with Sketch.</desc>
    <defs></defs>
    <g id="colored" stroke="none" stroke-width="1" fill="none" fill-rule="evenodd" sketch:type="MSPage">
        <g id="Kitchen_sliced" sketch:type="MSLayerGroup" transform="translate(-720.000000, -120.000000)"></g>
        <g id="Kitchen" sketch:type="MSLayerGroup" transform="translate(-727.000000, -118.000000)" stroke="#314E55" stroke-width="2" stroke-linejoin="round">
            <g id="Hottea" transform="translate(740.000000, 122.000000)" sketch:type="MSShapeGroup">
                <rect id="Rectangle-681" stroke-linecap="round" fill="#73C9C9" x="1" y="20" width="27" height="30"></rect>
                <path d="M0,21 L29,21" id="Line" stroke-linecap="square" fill="#D8D8D8"></path>
                <path d="M6,52 L23,52" id="Line" stroke-linecap="square" fill="#D8D8D8"></path>
                <path d="M27.250254,26 L36.8862003,26 C36.8862003,26 37.512469,33.5199876 27.7375879,37.6290557" id="Path-1393" stroke-linecap="round"></path>
                <path d="M6,25 L6,39.0356684" id="Line" stroke-linecap="square" fill="#D8D8D8"></path>
                <path d="M12.7633413,0 C12.7633413,0 7.90404212,2.25461238 11.0730777,8.56541225 C14.2421132,14.8762121 10.719664,17.0940917 10.719664,17.0940917" id="Path-1337" stroke-linecap="round" fill="#D8D8D8"></path>
                <path d="M19.3816706,2.36102319 C19.3816706,2.36102319 15.864697,3.99282481 18.1583229,8.56033875 C20.4519488,13.1278527 17.9025357,14.7330685 17.9025357,14.7330685" id="Path-1338" stroke-linecap="round" fill="#D8D8D8"></path>
            </g>
        </g>
    </g>
</svg>