<?xml version="1.0" encoding="UTF-8" standalone="no"?>
<svg width="60px" height="60px" viewBox="0 0 60 60" version="1.1" xmlns="http://www.w3.org/2000/svg" xmlns:xlink="http://www.w3.org/1999/xlink" xmlns:sketch="http://www.bohemiancoding.com/sketch/ns">
    <!-- Generator: Sketch 3.2.2 (9983) - http://www.bohemiancoding.com/sketch -->
    <title>Icehorn</title>
    <desc>Created with Sketch.</desc>
    <defs></defs>
    <g id="colored" stroke="none" stroke-width="1" fill="none" fill-rule="evenodd" sketch:type="MSPage">
        <g id="Kitchen_sliced" sketch:type="MSLayerGroup" transform="translate(-240.000000, -360.000000)"></g>
        <g id="Kitchen" sketch:type="MSLayerGroup" transform="translate(-247.000000, -358.000000)" stroke="#314E55" stroke-width="2" stroke-linejoin="round">
            <g id="Icecream-2" transform="translate(279.750000, 389.933013) rotate(-30.000000) translate(-279.750000, -389.933013) translate(264.250000, 360.933013)" sketch:type="MSShapeGroup">
                <path d="M2,12 L28,12 L15,57 L2,12 Z" id="Triangle-24" stroke-linecap="round" fill="#E9E7D1"></path>
                <path d="M26.625,12 C26.625,5.57968978 21.4203102,0.375 15,0.375 C8.57968978,0.375 3.375,5.57968978 3.375,12 L26.625,12 Z" id="Oval-655" stroke-linecap="round" fill="#73C9C9"></path>
                <path d="M15,4 C10.581722,4 7,7.581722 7,12" id="Oval-655" stroke-linecap="round"></path>
                <path d="M0,12 L30.0166626,12" id="Line" stroke-linecap="square"></path>
                <path d="M5,21 L12,18" id="Line" stroke-linecap="square"></path>
                <path d="M7,29 L12,27" id="Line" stroke-linecap="square"></path>
                <path d="M10,36 L12,35" id="Line" stroke-linecap="square"></path>
            </g>
        </g>
    </g>
</svg>