<?xml version="1.0" encoding="UTF-8" standalone="no"?>
<svg width="60px" height="60px" viewBox="0 0 60 60" version="1.1" xmlns="http://www.w3.org/2000/svg" xmlns:xlink="http://www.w3.org/1999/xlink" xmlns:sketch="http://www.bohemiancoding.com/sketch/ns">
    <!-- Generator: Sketch 3.2.2 (9983) - http://www.bohemiancoding.com/sketch -->
    <title>Leaf</title>
    <desc>Created with Sketch.</desc>
    <defs></defs>
    <g id="colored" stroke="none" stroke-width="1" fill="none" fill-rule="evenodd" sketch:type="MSPage">
        <g id="Kitchen_sliced" sketch:type="MSLayerGroup" transform="translate(-840.000000, -1200.000000)"></g>
        <g id="Kitchen" sketch:type="MSLayerGroup" transform="translate(-847.000000, -1198.000000)" stroke="#314E55" stroke-width="2" stroke-linecap="round" stroke-linejoin="round">
            <g id="Leaf" transform="translate(877.646447, 1229.353553) rotate(-315.000000) translate(-877.646447, -1229.353553) translate(860.646447, 1200.853553)" sketch:type="MSShapeGroup">
                <path d="M17,48.9606674 C26.756124,45.1137087 33.6597323,35.6032333 33.6597323,24.4803337 C33.6597323,13.3574342 26.756124,3.84695871 17,2.27373675e-13 C7.24387598,3.84695871 0.340267672,13.3574342 0.340267672,24.4803337 C0.340267672,35.6032333 7.24387598,45.1137087 17,48.9606674 L17,48.9606674 Z" id="Oval-750" fill="#5ECB66"></path>
                <path d="M17.2451028,48.9606674 C17.2451028,48.9606674 14.5452095,53.9440619 19.4242084,56" id="Path-1732"></path>
                <path d="M16.9907716,4.52036677 C16.9907716,4.52036677 13.7876856,22.1435911 17.0300587,44.4937602" id="Path-1733"></path>
                <path d="M16.5972184,35.8592796 L24.988568,32.0402154" id="Line"></path>
                <path d="M16.5859278,25.8553585 L23.9998586,22.2451465" id="Line"></path>
                <path d="M16.2825106,16.5386134 L21.3032758,14.591329" id="Line"></path>
                <path d="M15.5857865,16.6862914 L10.636039,14.5649712" id="Line"></path>
                <path d="M16.2928932,25.8786796 L9.22182541,23.0502525" id="Line"></path>
                <path d="M16.2928932,35.7781745 L9.22182541,32.9497475" id="Line"></path>
            </g>
        </g>
    </g>
</svg>