<?xml version="1.0" encoding="UTF-8" standalone="no"?>
<svg width="60px" height="60px" viewBox="0 0 60 60" version="1.1" xmlns="http://www.w3.org/2000/svg" xmlns:xlink="http://www.w3.org/1999/xlink" xmlns:sketch="http://www.bohemiancoding.com/sketch/ns">
    <!-- Generator: Sketch 3.2.2 (9983) - http://www.bohemiancoding.com/sketch -->
    <title>Milkbottle</title>
    <desc>Created with Sketch.</desc>
    <defs></defs>
    <g id="colored" stroke="none" stroke-width="1" fill="none" fill-rule="evenodd" sketch:type="MSPage">
        <g id="Kitchen_sliced" sketch:type="MSLayerGroup" transform="translate(-240.000000, -1560.000000)"></g>
        <g id="Kitchen" sketch:type="MSLayerGroup" transform="translate(-247.000000, -1558.000000)" stroke="#314E55" stroke-width="2" stroke-linecap="round" stroke-linejoin="round">
            <g id="Milkbottle" transform="translate(268.000000, 1563.000000)" sketch:type="MSShapeGroup">
                <rect id="Rectangle-897" fill="#D8D8D8" x="0" y="37" width="24" height="7" rx="14"></rect>
                <rect id="Rectangle-897" fill="#EAEAEA" x="0" y="44" width="24" height="7" rx="14"></rect>
                <rect id="Rectangle-898" fill="#EAEAEA" x="0" y="30" width="24" height="7" rx="14"></rect>
                <rect id="Rectangle-899" fill="#D8D8D8" x="0" y="23" width="24" height="7" rx="14"></rect>
                <path d="M9,8 L7.49502875,8 C3.36236782,8 0,11.3578644 0,15.5 L0,19.5020973 C0,21.4371865 1.56243939,23 3.48980606,23 L20.5101939,23 C22.425293,23 24,21.4339356 24,19.5020973 L24,15.5 C24,11.3662928 20.6443613,8 16.5049713,8 L15,8 L15,4 L9,4 L9,8 Z" id="Rectangle-900" fill="#EAEAEA"></path>
                <rect id="Rectangle-903" fill="#DBCF56" x="7" y="0" width="10" height="4"></rect>
            </g>
        </g>
    </g>
</svg>