<?xml version="1.0" encoding="UTF-8" standalone="no"?>
<svg width="60px" height="60px" viewBox="0 0 60 60" version="1.1" xmlns="http://www.w3.org/2000/svg" xmlns:xlink="http://www.w3.org/1999/xlink" xmlns:sketch="http://www.bohemiancoding.com/sketch/ns">
    <!-- Generator: Sketch 3.2.2 (9983) - http://www.bohemiancoding.com/sketch -->
    <title>Mixer</title>
    <desc>Created with Sketch.</desc>
    <defs></defs>
    <g id="colored" stroke="none" stroke-width="1" fill="none" fill-rule="evenodd" sketch:type="MSPage">
        <g id="Kitchen_sliced" sketch:type="MSLayerGroup" transform="translate(-360.000000, -1440.000000)"></g>
        <g id="Kitchen" sketch:type="MSLayerGroup" transform="translate(-367.000000, -1438.000000)" stroke="#314E55" stroke-width="2" stroke-linejoin="round">
            <g id="Mixer" transform="translate(373.000000, 1447.000000)" sketch:type="MSShapeGroup">
                <path d="M6.69132273,3.78062323 C7.41408523,1.69264267 9.79219474,0 12.0018785,0 L32.9981215,0 C35.208298,0 37,1.78708529 37,4.00552025 L37,21.9944797 C37,24.2066675 35.2181492,26 33.0051562,26 L2.99484381,26 C0.788552496,26 -0.41641943,24.3141006 0.308677271,22.2193768 L6.69132273,3.78062323 Z M12,5 L31,5 L31,11 L12,11 L12,5 Z" id="Rectangle-815" stroke-linecap="round" fill="#E9E7D1"></path>
                <circle id="Oval-771" stroke-linecap="round" fill="#E45E57" cx="8" cy="20" r="2"></circle>
                <circle id="Oval-772" stroke-linecap="round" fill="#73C9C9" cx="16" cy="20" r="2"></circle>
                <path d="M7,27 L7,48" id="Line" stroke-linecap="square"></path>
                <rect id="Rectangle-817" stroke-linecap="round" x="1" y="35" width="12" height="14" rx="4"></rect>
                <rect id="Rectangle-818" stroke-linecap="round" x="37" y="17" width="6" height="6"></rect>
                <path d="M43,20 L48,20" id="Line" stroke-linecap="square"></path>
            </g>
        </g>
    </g>
</svg>