<?xml version="1.0" encoding="UTF-8" standalone="no"?>
<svg width="60px" height="60px" viewBox="0 0 60 60" version="1.1" xmlns="http://www.w3.org/2000/svg" xmlns:xlink="http://www.w3.org/1999/xlink" xmlns:sketch="http://www.bohemiancoding.com/sketch/ns">
    <!-- Generator: Sketch 3.2.2 (9983) - http://www.bohemiancoding.com/sketch -->
    <title>Muffin</title>
    <desc>Created with Sketch.</desc>
    <defs></defs>
    <g id="colored" stroke="none" stroke-width="1" fill="none" fill-rule="evenodd" sketch:type="MSPage">
        <g id="Kitchen_sliced" sketch:type="MSLayerGroup"></g>
        <g id="Kitchen" sketch:type="MSLayerGroup" transform="translate(-7.000000, 2.000000)" stroke="#314E55" stroke-width="2" stroke-linejoin="round">
            <g id="Muffin" transform="translate(17.000000, 2.000000)" sketch:type="MSShapeGroup">
                <path d="M34,27.955157 C39.6065,27.4499282 44,22.7380426 44,17 C44,10.9248678 39.0751322,6 33,6 C32.6053614,6 32.2155766,6.02078176 31.8316804,6.06131059 L31.8316804,6.06131059 C30.0222953,2.4663359 26.2991694,0 22,0 C17.7008306,0 13.9777047,2.4663359 12.1683196,6.06131059 C11.7844234,6.02078176 11.3946386,6 11,6 C4.92486775,6 0,10.9248678 0,17 C0,23.0751322 4.92486775,28 11,28 L34,28 L34,27.955157 Z" id="Oval-618" stroke-linecap="round" fill="#F58CAC"></path>
                <path d="M6,30 L38,30 L35,55 L9,55 L6,30 Z" id="Rectangle-670" stroke-linecap="round" fill="#EAEAEA"></path>
                <path d="M31,35 L29,50" id="Line" stroke-linecap="square" fill="#D8D8D8"></path>
                <path d="M15,35 L13,50" id="Line" stroke-linecap="square" fill="#D8D8D8" transform="translate(14.000000, 42.500000) scale(-1, 1) translate(-14.000000, -42.500000) "></path>
                <path d="M22,35 L22,50" id="Line" stroke-linecap="square" fill="#D8D8D8"></path>
                <path d="M32,24 C35.8659932,24 39,20.8659932 39,17 C39,13.1340068 35.8659932,10 32,10" id="Oval-621" stroke-linecap="round"></path>
                <path d="M5,24 C8.86599325,24 12,20.8659932 12,17 C12,13.1340068 8.86599325,10 5,10" id="Oval-621" stroke-linecap="round" transform="translate(8.500000, 17.000000) scale(-1, 1) translate(-8.500000, -17.000000) "></path>
            </g>
        </g>
    </g>
</svg>