<?xml version="1.0" encoding="UTF-8" standalone="no"?>
<svg width="60px" height="60px" viewBox="0 0 60 60" version="1.1" xmlns="http://www.w3.org/2000/svg" xmlns:xlink="http://www.w3.org/1999/xlink" xmlns:sketch="http://www.bohemiancoding.com/sketch/ns">
    <!-- Generator: Sketch 3.2.2 (9983) - http://www.bohemiancoding.com/sketch -->
    <title>Peach</title>
    <desc>Created with Sketch.</desc>
    <defs></defs>
    <g id="colored" stroke="none" stroke-width="1" fill="none" fill-rule="evenodd" sketch:type="MSPage">
        <g id="Kitchen_sliced" sketch:type="MSLayerGroup" transform="translate(-600.000000, -960.000000)"></g>
        <g id="Kitchen" sketch:type="MSLayerGroup" transform="translate(-607.000000, -958.000000)" stroke="#314E55" stroke-width="2" stroke-linecap="round" stroke-linejoin="round">
            <g id="Peach-2" transform="translate(614.000000, 964.000000)" sketch:type="MSShapeGroup">
                <path d="M21.9391273,48.8912995 C13.2956713,50.7285228 4.00817747,41.4885624 1.19492929,28.2532704 C-1.61831889,15.0179783 3.10799843,2.7992904 11.7514545,0.962067097 C15.8962791,0.0810574311 20.1892015,1.74726987 23.8452909,5.17979074 C27.5013803,1.74726987 31.7943027,0.0810574311 35.9391273,0.962067097 C44.5825834,2.7992904 49.3089007,15.0179783 46.4956525,28.2532704 C43.6824043,41.4885624 34.3949105,50.7285228 25.7514545,48.8912995 C25.092785,48.751295 24.4568628,48.5510042 23.8452909,48.2945712 C23.8452909,48.2945712 22.5977968,48.751295 21.9391273,48.8912995 Z" id="Oval-725" fill="#E4AD40"></path>
                <path d="M24,34 C27.3137085,34 30,31.9705627 30,27 C30,22.0294373 24,16 24,16 C24,16 18,22.0294373 18,27 C18,31.9705627 20.6862915,34 24,34 Z" id="Oval-725" fill="#DBCF56"></path>
            </g>
        </g>
    </g>
</svg>