<?xml version="1.0" encoding="UTF-8" standalone="no"?>
<svg width="60px" height="60px" viewBox="0 0 60 60" version="1.1" xmlns="http://www.w3.org/2000/svg" xmlns:xlink="http://www.w3.org/1999/xlink" xmlns:sketch="http://www.bohemiancoding.com/sketch/ns">
    <!-- Generator: Sketch 3.2.2 (9983) - http://www.bohemiancoding.com/sketch -->
    <title>Peachslide</title>
    <desc>Created with Sketch.</desc>
    <defs></defs>
    <g id="colored" stroke="none" stroke-width="1" fill="none" fill-rule="evenodd" sketch:type="MSPage">
        <g id="Kitchen_sliced" sketch:type="MSLayerGroup" transform="translate(-240.000000, -120.000000)"></g>
        <g id="Kitchen" sketch:type="MSLayerGroup" transform="translate(-247.000000, -118.000000)" stroke="#314E55" stroke-width="2" stroke-linejoin="round">
            <g id="Peach" transform="translate(282.707107, 155.000000) rotate(-45.000000) translate(-282.707107, -155.000000) translate(254.207107, 140.500000)" sketch:type="MSShapeGroup">
                <path d="M39,2.72848411e-12 L56,2.72848411e-12 C56,15.463973 43.463973,28 28,28 C12.536027,28 1.36424205e-12,15.463973 1.36424205e-12,2.72848411e-12 L17,2.72848411e-12 C17,6.07513225 21.9248678,11 28,11 C34.0751322,11 39,6.07513225 39,2.72848411e-12 Z" id="Oval-630" stroke-linecap="round" fill="#E5D85A"></path>
                <path d="M21,1 L23,1" id="Line" fill="#D8D8D8"></path>
                <path d="M24,4 L26,4" id="Line" fill="#D8D8D8"></path>
                <path d="M26,1 L28,1" id="Line" fill="#D8D8D8"></path>
                <path d="M28,5 L30,5" id="Line" fill="#D8D8D8"></path>
                <path d="M34,1 L36,1" id="Line" fill="#D8D8D8"></path>
                <path d="M30,2 L32,2" id="Line" fill="#D8D8D8"></path>
                <path d="M32,5 L34,5" id="Line" fill="#D8D8D8"></path>
                <path d="M25,7 L27,7" id="Line" fill="#D8D8D8"></path>
            </g>
        </g>
    </g>
</svg>