<?xml version="1.0" encoding="UTF-8" standalone="no"?>
<svg width="60px" height="60px" viewBox="0 0 60 60" version="1.1" xmlns="http://www.w3.org/2000/svg" xmlns:xlink="http://www.w3.org/1999/xlink" xmlns:sketch="http://www.bohemiancoding.com/sketch/ns">
    <!-- Generator: Sketch 3.2.2 (9983) - http://www.bohemiancoding.com/sketch -->
    <title>Pizza</title>
    <desc>Created with Sketch.</desc>
    <defs></defs>
    <g id="colored" stroke="none" stroke-width="1" fill="none" fill-rule="evenodd" sketch:type="MSPage">
        <g id="Kitchen_sliced" sketch:type="MSLayerGroup" transform="translate(-360.000000, -960.000000)"></g>
        <g id="Kitchen" sketch:type="MSLayerGroup" transform="translate(-367.000000, -958.000000)" stroke="#314E55" stroke-width="2" stroke-linecap="round" stroke-linejoin="round">
            <g id="Pizza-2" transform="translate(397.000000, 987.085786) rotate(-315.000000) translate(-397.000000, -987.085786) translate(369.000000, 957.585786)" sketch:type="MSShapeGroup">
                <g id="Oval-719-+-Triangle-26" transform="translate(1.000000, 1.000000)" fill="#E4AD40">
                    <path d="M41.0168371,51.6607789 C49.3528575,47.0649899 55,38.1919753 55,28 C55,13.0883118 42.9116882,1 28,1 C13.0883118,1 1,13.0883118 1,28 C1,38.1919753 6.64714254,47.0649899 14.9831629,51.6607789 L28,24 L41.0168371,51.6607789 Z" id="Oval-719"></path>
                    <path d="M28,33.2671822 L38.5,55.4338489 C38.5,55.4338489 34.2627802,57.5266315 28,57.5266315 C21.7372198,57.5266315 17.5,55.4338489 17.5,55.4338489 L28,33.2671822 Z" id="Triangle-26"></path>
                </g>
                <path d="M39.8297443,46.9957896 C45.9243675,43.3202027 50,36.6360588 50,29 C50,17.4020203 40.5979797,8 29,8 C17.4020203,8 8,17.4020203 8,29 C8,36.7790296 12.2296783,43.5701649 18.5146964,47.1990674" id="Oval-720"></path>
                <path d="M21.0027361,52.1303202 C23.4119739,53.3270974 26.1274046,54 29,54 C31.8652038,54 34.5740506,53.3305559 36.9786597,52.1395482" id="Oval-720"></path>
                <circle id="Oval-720" fill="#E45E57" cx="17" cy="22" r="4"></circle>
                <circle id="Oval-720" fill="#E45E57" cx="41" cy="32" r="4"></circle>
                <circle id="Oval-720" fill="#E45E57" cx="35" cy="18" r="4"></circle>
                <path d="M14.7815032,30.9497203 C14.7815032,30.9497203 13.3916388,32.6483078 15.1170719,34.5043077" id="Path-1628"></path>
                <path d="M25.7815032,14.9497203 C25.7815032,14.9497203 24.3916388,16.6483078 26.1170719,18.5043077" id="Path-1629" transform="translate(25.684726, 16.727014) rotate(-42.000000) translate(-25.684726, -16.727014) "></path>
                <path d="M43.7815032,21.9497203 C43.7815032,21.9497203 42.3916388,23.6483078 44.1170719,25.5043077" id="Path-1630" transform="translate(43.684726, 23.727014) rotate(-42.000000) translate(-43.684726, -23.727014) "></path>
                <path d="M28.8203494,45.8062691 C28.8203494,45.8062691 27.4304849,47.5048566 29.155918,49.3608565" id="Path-1630" transform="translate(28.723572, 47.583563) rotate(-146.000000) translate(-28.723572, -47.583563) "></path>
            </g>
        </g>
    </g>
</svg>