<?xml version="1.0" encoding="UTF-8" standalone="no"?>
<svg width="60px" height="60px" viewBox="0 0 60 60" version="1.1" xmlns="http://www.w3.org/2000/svg" xmlns:xlink="http://www.w3.org/1999/xlink" xmlns:sketch="http://www.bohemiancoding.com/sketch/ns">
    <!-- Generator: Sketch 3.2.2 (9983) - http://www.bohemiancoding.com/sketch -->
    <title>Skewer</title>
    <desc>Created with Sketch.</desc>
    <defs></defs>
    <g id="colored" stroke="none" stroke-width="1" fill="none" fill-rule="evenodd" sketch:type="MSPage">
        <g id="Kitchen_sliced" sketch:type="MSLayerGroup" transform="translate(0.000000, -1200.000000)"></g>
        <g id="Kitchen" sketch:type="MSLayerGroup" transform="translate(-7.000000, -1198.000000)" stroke="#314E55" stroke-width="2" stroke-linejoin="round">
            <g id="Skewer" transform="translate(36.646447, 1228.353553) rotate(-315.000000) translate(-36.646447, -1228.353553) translate(27.646447, 1193.853553)" sketch:type="MSShapeGroup">
                <circle id="Oval-744" stroke-linecap="round" fill="#E45E57" cx="9" cy="57" r="5"></circle>
                <circle id="Oval-744" stroke-linecap="round" fill="#E45E57" cx="9" cy="38" r="5"></circle>
                <rect id="Rectangle-784" stroke-linecap="round" fill="#E4AD40" x="1" y="26" width="16" height="5"></rect>
                <rect id="Rectangle-784" stroke-linecap="round" fill="#E4AD40" x="1" y="17" width="16" height="5" rx="14"></rect>
                <path d="M4,49 L14,49" id="Line" stroke-linecap="round"></path>
                <path d="M4,46 L14,46" id="Line" stroke-linecap="round"></path>
                <path d="M4,24 L14,24" id="Line" stroke-linecap="round"></path>
                <path d="M9,63 L9,68" id="Line" stroke-linecap="square"></path>
                <path d="M9,17 L9,10" id="Line" stroke-linecap="square"></path>
                <path d="M9,10 C11.7614237,10 14,7.76142375 14,5 C14,2.23857625 11.7614237,1.47792889e-12 9,1.47792889e-12" id="Oval-746" stroke-linecap="round"></path>
            </g>
        </g>
    </g>
</svg>