<?xml version="1.0" encoding="UTF-8" standalone="no"?>
<svg width="60px" height="60px" viewBox="0 0 60 60" version="1.1" xmlns="http://www.w3.org/2000/svg" xmlns:xlink="http://www.w3.org/1999/xlink" xmlns:sketch="http://www.bohemiancoding.com/sketch/ns">
    <!-- Generator: Sketch 3.2.2 (9983) - http://www.bohemiancoding.com/sketch -->
    <title>Specialvessel</title>
    <desc>Created with Sketch.</desc>
    <defs></defs>
    <g id="colored" stroke="none" stroke-width="1" fill="none" fill-rule="evenodd" sketch:type="MSPage">
        <g id="Kitchen_sliced" sketch:type="MSLayerGroup" transform="translate(-480.000000, -1440.000000)"></g>
        <g id="Kitchen" sketch:type="MSLayerGroup" transform="translate(-487.000000, -1438.000000)" stroke="#314E55" stroke-width="2" stroke-linecap="round" stroke-linejoin="round">
            <g id="Specialvasel" transform="translate(489.000000, 1463.000000)" sketch:type="MSShapeGroup">
                <path d="M36.41028,23 C44.9528575,19.6422597 51,11.3204262 51,1.5862069 C51,1.05303953 50.9818584,0.524109365 50.9461589,4.31321645e-13 L50.9461589,7.17648163e-13 L5.05384112,2.50688359e-13 C5.01814158,0.524109365 5,1.05303953 5,1.5862069 C5,11.3204262 11.0471425,19.6422597 19.58972,23 L36.41028,23 Z" id="Oval-773" fill="#DBCF56"></path>
                <path d="M19.5384615,23 L36.4615385,23 L38,28 L18,28 L19.5384615,23 Z" id="Rectangle-821" fill="#D8D8D8"></path>
                <path d="M51,5 L56,5" id="Line"></path>
                <path d="M0,5 L5,5" id="Line"></path>
                <rect id="Rectangle-822" x="13" y="4" width="2" height="2"></rect>
                <rect id="Rectangle-823" x="17" y="4" width="2" height="2"></rect>
                <rect id="Rectangle-824" x="21" y="4" width="2" height="2"></rect>
                <rect id="Rectangle-825" x="25" y="4" width="2" height="2"></rect>
                <rect id="Rectangle-829" x="29" y="4" width="2" height="2"></rect>
                <rect id="Rectangle-826" x="33" y="4" width="2" height="2"></rect>
                <rect id="Rectangle-827" x="37" y="4" width="2" height="2"></rect>
                <rect id="Rectangle-828" x="41" y="4" width="2" height="2"></rect>
                <rect id="Rectangle-837" x="13" y="8" width="2" height="2"></rect>
                <rect id="Rectangle-853" x="9" y="8" width="2" height="2"></rect>
                <rect id="Rectangle-830" x="17" y="8" width="2" height="2"></rect>
                <rect id="Rectangle-831" x="21" y="8" width="2" height="2"></rect>
                <rect id="Rectangle-832" x="25" y="8" width="2" height="2"></rect>
                <rect id="Rectangle-833" x="29" y="8" width="2" height="2"></rect>
                <rect id="Rectangle-834" x="33" y="8" width="2" height="2"></rect>
                <rect id="Rectangle-835" x="37" y="8" width="2" height="2"></rect>
                <rect id="Rectangle-836" x="41" y="8" width="2" height="2"></rect>
                <rect id="Rectangle-854" x="45" y="8" width="2" height="2"></rect>
                <rect id="Rectangle-845" x="13" y="12" width="2" height="2"></rect>
                <rect id="Rectangle-838" x="17" y="12" width="2" height="2"></rect>
                <rect id="Rectangle-839" x="21" y="12" width="2" height="2"></rect>
                <rect id="Rectangle-840" x="25" y="12" width="2" height="2"></rect>
                <rect id="Rectangle-841" x="29" y="12" width="2" height="2"></rect>
                <rect id="Rectangle-850" x="17" y="16" width="2" height="2"></rect>
                <rect id="Rectangle-846" x="21" y="16" width="2" height="2"></rect>
                <rect id="Rectangle-847" x="25" y="16" width="2" height="2"></rect>
                <rect id="Rectangle-848" x="29" y="16" width="2" height="2"></rect>
                <rect id="Rectangle-849" x="33" y="16" width="2" height="2"></rect>
                <rect id="Rectangle-851" x="37" y="16" width="2" height="2"></rect>
                <rect id="Rectangle-842" x="33" y="12" width="2" height="2"></rect>
                <rect id="Rectangle-843" x="37" y="12" width="2" height="2"></rect>
                <rect id="Rectangle-852" x="41" y="12" width="2" height="2"></rect>
            </g>
        </g>
    </g>
</svg>