<?xml version="1.0" encoding="UTF-8" standalone="no"?>
<svg width="60px" height="60px" viewBox="0 0 60 60" version="1.1" xmlns="http://www.w3.org/2000/svg" xmlns:xlink="http://www.w3.org/1999/xlink" xmlns:sketch="http://www.bohemiancoding.com/sketch/ns">
    <!-- Generator: Sketch 3.2.2 (9983) - http://www.bohemiancoding.com/sketch -->
    <title>Spoon</title>
    <desc>Created with Sketch.</desc>
    <defs></defs>
    <g id="colored" stroke="none" stroke-width="1" fill="none" fill-rule="evenodd" sketch:type="MSPage">
        <g id="Kitchen_sliced" sketch:type="MSLayerGroup" transform="translate(-360.000000, -120.000000)"></g>
        <g id="Kitchen" sketch:type="MSLayerGroup" transform="translate(-367.000000, -118.000000)" stroke="#314E55" stroke-width="2" stroke-linecap="round" stroke-linejoin="round">
            <g id="Spoon" transform="translate(397.707107, 148.500000) rotate(-315.000000) translate(-397.707107, -148.500000) translate(386.207107, 116.500000)" sketch:type="MSShapeGroup">
                <path d="M11,32 C17.0751322,32 22,25.7319865 22,18 C22,10.2680135 17.0751322,1 11,1 C4.92486775,1 9.09494702e-13,10.2680135 9.09494702e-13,18 C9.09494702e-13,25.7319865 4.92486775,32 11,32 Z" id="Oval-631" fill="#E4AD40"></path>
                <path d="M18,18 C18,12.4771525 14.8659932,8 11,8" id="Oval-632"></path>
                <path d="M9,31 L14,31 L15,64 L8,64 L9,31 Z" id="Rectangle-677" fill="#E4AD40"></path>
            </g>
        </g>
    </g>
</svg>