<?xml version="1.0" encoding="UTF-8" standalone="no"?>
<svg width="60px" height="60px" viewBox="0 0 60 60" version="1.1" xmlns="http://www.w3.org/2000/svg" xmlns:xlink="http://www.w3.org/1999/xlink" xmlns:sketch="http://www.bohemiancoding.com/sketch/ns">
    <!-- Generator: Sketch 3.2.2 (9983) - http://www.bohemiancoding.com/sketch -->
    <title>Tastesoup</title>
    <desc>Created with Sketch.</desc>
    <defs></defs>
    <g id="colored" stroke="none" stroke-width="1" fill="none" fill-rule="evenodd" sketch:type="MSPage">
        <g id="Kitchen_sliced" sketch:type="MSLayerGroup" transform="translate(-720.000000, -1440.000000)"></g>
        <g id="Kitchen" sketch:type="MSLayerGroup" transform="translate(-727.000000, -1438.000000)" stroke-width="2" stroke-linejoin="round">
            <g id="Tastesoup" transform="translate(731.000000, 1449.000000)" sketch:type="MSShapeGroup">
                <path d="M29,31 C29,37.0751322 33.9248678,42 40,42 C46.0751322,42 51,37.0751322 51,31 L29,31 Z" id="Oval-774" stroke="#314E55" stroke-linecap="round" fill="#C59981"></path>
                <path d="M40,16 C40,16 36.4830264,17.3189425 38.7766523,21.0107443 C41.0702782,24.7025461 38.5208651,26 38.5208651,26" id="Path-1356" stroke="#314E55" stroke-linecap="round"></path>
                <path d="M44,9 C44,9 40.4830264,10.3189425 42.7766523,14.0107443 C45.0702782,17.7025461 42.5208651,19 42.5208651,19" id="Path-1356" stroke="#314E55" stroke-linecap="round"></path>
                <g id="Oval-774-+-Line" transform="translate(15.500000, 19.256242) rotate(-30.000000) translate(-15.500000, -19.256242) translate(9.000000, 1.256242)" stroke="#535353">
                    <path d="M12,6 C12,2.6862915 9.3137085,0 6,0 C2.6862915,0 0,2.6862915 0,6 C0,9.3137085 2.6862915,12 6,12" id="Oval-774" stroke-linecap="round"></path>
                    <path d="M12,36 L12,6" id="Line"></path>
                </g>
            </g>
        </g>
    </g>
</svg>