<?xml version="1.0" encoding="UTF-8" standalone="no"?>
<svg width="60px" height="60px" viewBox="0 0 60 60" version="1.1" xmlns="http://www.w3.org/2000/svg" xmlns:xlink="http://www.w3.org/1999/xlink" xmlns:sketch="http://www.bohemiancoding.com/sketch/ns">
    <!-- Generator: Sketch 3.2.2 (9983) - http://www.bohemiancoding.com/sketch -->
    <title>Waterlemon</title>
    <desc>Created with Sketch.</desc>
    <defs></defs>
    <g id="colored" stroke="none" stroke-width="1" fill="none" fill-rule="evenodd" sketch:type="MSPage">
        <g id="Kitchen_sliced" sketch:type="MSLayerGroup" transform="translate(-240.000000, -840.000000)"></g>
        <g id="Kitchen" sketch:type="MSLayerGroup" transform="translate(-247.000000, -838.000000)" stroke="#314E55" stroke-width="2" stroke-linecap="round" stroke-linejoin="round">
            <g id="Waterlemon" transform="translate(283.052038, 875.120314) rotate(-45.000000) translate(-283.052038, -875.120314) translate(252.052038, 862.620314)" sketch:type="MSShapeGroup">
                <path d="M61.884607,1 C58.1931988,14.595554 45.7642782,24.5944084 31,24.5944084 C16.2357218,24.5944084 3.80680125,14.595554 0.115393044,1 L61.884607,1 Z" id="Oval-704" fill="#5ECB66"></path>
                <path d="M56.5238573,1 C52.8352272,11.5415787 42.8005775,19.102414 31,19.102414 C19.1994225,19.102414 9.16477279,11.5415787 5.47614271,1 L56.5238573,1 Z" id="Oval-705" fill="#E45E57"></path>
                <path d="M20,5 L19,6" id="Line" fill="#D8D8D8"></path>
                <path d="M24,8 L24,10" id="Line" fill="#D8D8D8"></path>
                <path d="M35,6 L34,7" id="Line" fill="#D8D8D8"></path>
                <path d="M40,7 L40,8" id="Line" fill="#D8D8D8"></path>
                <path d="M31,12 L34,13" id="Line" fill="#D8D8D8"></path>
                <path d="M47,5 L46,6" id="Line" fill="#D8D8D8"></path>
            </g>
        </g>
    </g>
</svg>