<?xml version="1.0" encoding="UTF-8" standalone="no"?>
<svg width="60px" height="60px" viewBox="0 0 60 60" version="1.1" xmlns="http://www.w3.org/2000/svg" xmlns:xlink="http://www.w3.org/1999/xlink" xmlns:sketch="http://www.bohemiancoding.com/sketch/ns">
    <!-- Generator: Sketch 3.2.2 (9983) - http://www.bohemiancoding.com/sketch -->
    <title>Winebottles</title>
    <desc>Created with Sketch.</desc>
    <defs></defs>
    <g id="colored" stroke="none" stroke-width="1" fill="none" fill-rule="evenodd" sketch:type="MSPage">
        <g id="Kitchen_sliced" sketch:type="MSLayerGroup" transform="translate(-360.000000, -1560.000000)"></g>
        <g id="Kitchen" sketch:type="MSLayerGroup" transform="translate(-367.000000, -1558.000000)" stroke="#314E55" stroke-width="2" stroke-linecap="round" stroke-linejoin="round">
            <g id="Winebottles" transform="translate(370.000000, 1562.000000)" sketch:type="MSShapeGroup">
                <rect id="Rectangle-904" fill="#E4AD40" x="0" y="40" width="54" height="12" rx="11"></rect>
                <rect id="Rectangle-904" fill="#E4AD40" x="0" y="28" width="54" height="12" rx="11"></rect>
                <circle id="Oval-777" fill="#EAEAEA" cx="6" cy="34" r="2"></circle>
                <circle id="Oval-778" fill="#EAEAEA" cx="6" cy="46" r="2"></circle>
                <circle id="Oval-780" fill="#EAEAEA" cx="48" cy="34" r="2"></circle>
                <circle id="Oval-779" fill="#EAEAEA" cx="48" cy="46" r="2"></circle>
                <path d="M13.3076923,15 L13.0996205,15 C10.8354034,15 9,16.8415787 9,19.1132812 L9,28 L25,28 L25,19.1132812 C25,16.8350102 23.1645374,15 20.9003795,15 L20.6923077,15 L19,4 L15,4 L13.3076923,15 L13.3076923,15 Z M13,0 L21,0 L21,4 L13,4 L13,0 Z" id="Rectangle-906" fill="#E65F58"></path>
                <path d="M34.3076923,15 L34.0996205,15 C31.8354034,15 30,16.8415787 30,19.1132812 L30,28 L46,28 L46,19.1132812 C46,16.8350102 44.1645374,15 41.9003795,15 L41.6923077,15 L40,4 L36,4 L34.3076923,15 L34.3076923,15 Z M34,0 L42,0 L42,4 L34,4 L34,0 Z" id="Rectangle-906" fill="#E65F58"></path>
            </g>
        </g>
    </g>
</svg>