<?xml version="1.0" encoding="UTF-8" standalone="no"?>
<svg width="60px" height="60px" viewBox="0 0 60 60" version="1.1" xmlns="http://www.w3.org/2000/svg" xmlns:xlink="http://www.w3.org/1999/xlink" xmlns:sketch="http://www.bohemiancoding.com/sketch/ns">
    <!-- Generator: Sketch 3.2.2 (9983) - http://www.bohemiancoding.com/sketch -->
    <title>AtoB</title>
    <desc>Created with Sketch.</desc>
    <defs></defs>
    <g id="colored" stroke="none" stroke-width="1" fill="none" fill-rule="evenodd" sketch:type="MSPage">
        <g id="Transport_sliced" sketch:type="MSLayerGroup" transform="translate(-360.000000, 0.000000)"></g>
        <g id="Transport" sketch:type="MSLayerGroup" transform="translate(-359.000000, 2.000000)" stroke="#314E55" stroke-width="2" stroke-linecap="round" stroke-linejoin="round">
            <g id="AtoB" transform="translate(363.000000, 2.000000)" sketch:type="MSShapeGroup">
                <path d="M41.5,25.8461538 C44.4298519,25.8461538 52,16.2989899 52,10.5 C52,4.70101013 47.2989899,0 41.5,0 C35.7010101,0 31,4.70101013 31,10.5 C31,16.2989899 38.5701481,25.8461538 41.5,25.8461538 Z M41.5,13 C43.9852814,13 46,10.9852814 46,8.5 C46,6.01471863 43.9852814,4 41.5,4 C39.0147186,4 37,6.01471863 37,8.5 C37,10.9852814 39.0147186,13 41.5,13 Z" id="Oval-1460" fill="#E65F58"></path>
                <path d="M10.5,52.6923077 C13.4298519,52.6923077 21,43.1451437 21,37.3461538 C21,31.547164 16.2989899,26.8461538 10.5,26.8461538 C4.70101013,26.8461538 0,31.547164 0,37.3461538 C0,43.1451437 7.5701481,52.6923077 10.5,52.6923077 Z M10.5,39.8461538 C12.9852814,39.8461538 15,37.8314352 15,35.3461538 C15,32.8608725 12.9852814,30.8461538 10.5,30.8461538 C8.01471863,30.8461538 6,32.8608725 6,35.3461538 C6,37.8314352 8.01471863,39.8461538 10.5,39.8461538 Z" id="Oval-1460" fill="#5ECB66"></path>
                <path d="M15.764141,53.8264662 C15.764141,53.8264662 32.1410937,56.4312295 37.811732,50.3785689 C43.4823703,44.3259083 34.6533357,42.4911579 31.6799812,35.5461191 C28.7066268,28.6010802 35.4114105,25.4852129 35.4114105,25.4852129" id="Path-3735" stroke-dasharray="4"></path>
            </g>
        </g>
    </g>
</svg>