<?xml version="1.0" encoding="UTF-8" standalone="no"?>
<svg width="60px" height="60px" viewBox="0 0 60 60" version="1.1" xmlns="http://www.w3.org/2000/svg" xmlns:xlink="http://www.w3.org/1999/xlink" xmlns:sketch="http://www.bohemiancoding.com/sketch/ns">
    <!-- Generator: Sketch 3.2.2 (9983) - http://www.bohemiancoding.com/sketch -->
    <title>Boat</title>
    <desc>Created with Sketch.</desc>
    <defs></defs>
    <g id="colored" stroke="none" stroke-width="1" fill="none" fill-rule="evenodd" sketch:type="MSPage">
        <g id="Transport_sliced" sketch:type="MSLayerGroup" transform="translate(-360.000000, -840.000000)"></g>
        <g id="Transport" sketch:type="MSLayerGroup" transform="translate(-359.000000, -838.000000)" stroke="#314E55" stroke-width="2" stroke-linecap="round" stroke-linejoin="round">
            <g id="Boat" transform="translate(361.000000, 863.000000)" sketch:type="MSShapeGroup">
                <path d="M9.01897832,0 L7.49430172,0 C3.35611631,0 0,3.35786438 0,7.5 C0,11.6337072 3.35531317,15 7.49430172,15 L48.5056983,15 C52.6438837,15 56,11.6421356 56,7.5 C56,3.36629279 52.6446868,0 48.5056983,0 L47.9809672,0 C47.9935787,0.165044997 48,0.331789378 48,0.5 C48,4.08985087 45.0846109,7 41.4942338,7 L15.5057662,7 C11.9127307,7 9,4.08254625 9,0.5 C9,0.331764003 9.00640297,0.165020812 9.01897832,-3.0306313e-13 Z" id="Rectangle-1807" fill="#DBCF56"></path>
                <path d="M22.617602,2.78032429 L39.0727569,22.3975948" id="Path-3945"></path>
                <polygon id="Triangle-59" fill="#EA86A5" transform="translate(41.500000, 25.000000) rotate(-40.000000) translate(-41.500000, -25.000000) " points="41.5 20 46 30 37 30 "></polygon>
            </g>
        </g>
    </g>
</svg>