<?xml version="1.0" encoding="UTF-8" standalone="no"?>
<svg width="60px" height="60px" viewBox="0 0 60 60" version="1.1" xmlns="http://www.w3.org/2000/svg" xmlns:xlink="http://www.w3.org/1999/xlink" xmlns:sketch="http://www.bohemiancoding.com/sketch/ns">
    <!-- Generator: Sketch 3.2.2 (9983) - http://www.bohemiancoding.com/sketch -->
    <title>Cabriolette</title>
    <desc>Created with Sketch.</desc>
    <defs></defs>
    <g id="colored" stroke="none" stroke-width="1" fill="none" fill-rule="evenodd" sketch:type="MSPage">
        <g id="Transport_sliced" sketch:type="MSLayerGroup" transform="translate(-240.000000, -600.000000)"></g>
        <g id="Transport" sketch:type="MSLayerGroup" transform="translate(-239.000000, -598.000000)" stroke="#314E55" stroke-width="2" stroke-linejoin="round">
            <g id="Cabriolette" transform="translate(241.000000, 619.000000)" sketch:type="MSShapeGroup">
                <g id="Oval-1513-+-Oval-1513-+-Rectangle-1743">
                    <path d="M39,23 L15,23 L15,23 C15,20.2385763 12.7614237,18 10,18 C7.23857625,18 5,20.2385763 5,23 L0,23 L3.11111111,9 L49.0040601,9 C52.867811,9 56,12.1418733 56,16 C56,19.8635164 52.8732122,22.995984 48.9999991,22.9999961 C49,20.2385763 46.7614237,18 44,18 C41.2385763,18 39,20.2385763 39,23 Z" id="Rectangle-1743" stroke-linecap="round" fill="#EA86A5"></path>
                    <path d="M16,9 L16,6" id="Line" stroke-linecap="square"></path>
                    <path d="M41.4979936,9 L32.9551596,0.457165999" id="Path-3843" stroke-linecap="round"></path>
                </g>
                <circle id="Oval-1514" stroke-linecap="round" fill="#D8D8D8" cx="44" cy="23" r="5"></circle>
                <circle id="Oval-1515" stroke-linecap="round" cx="44" cy="23" r="1"></circle>
                <circle id="Oval-1514" stroke-linecap="round" fill="#D8D8D8" cx="10" cy="23" r="5"></circle>
                <circle id="Oval-1516" stroke-linecap="round" cx="10" cy="23" r="1"></circle>
                <path d="M55.4051026,15.071589 L50.5948974,12.928411" id="Path-3844" stroke-linecap="round"></path>
                <path d="M2.47002155,13 L6.70295006,13 L5.35510222,16.8819324 L1.80673968,17" id="Path-3845" stroke-linecap="round"></path>
                <path d="M36.0000001,13 L33,13" id="Path-3846" stroke-linecap="round"></path>
            </g>
        </g>
    </g>
</svg>