<?xml version="1.0" encoding="UTF-8" standalone="no"?>
<svg width="60px" height="60px" viewBox="0 0 60 60" version="1.1" xmlns="http://www.w3.org/2000/svg" xmlns:xlink="http://www.w3.org/1999/xlink" xmlns:sketch="http://www.bohemiancoding.com/sketch/ns">
    <!-- Generator: Sketch 3.2.2 (9983) - http://www.bohemiancoding.com/sketch -->
    <title>Camionette</title>
    <desc>Created with Sketch.</desc>
    <defs></defs>
    <g id="colored" stroke="none" stroke-width="1" fill="none" fill-rule="evenodd" sketch:type="MSPage">
        <g id="Transport_sliced" sketch:type="MSLayerGroup" transform="translate(-600.000000, -360.000000)"></g>
        <g id="Transport" sketch:type="MSLayerGroup" transform="translate(-599.000000, -358.000000)" stroke="#314E55" stroke-width="2" stroke-linejoin="round">
            <g id="Camionette" transform="translate(603.000000, 371.000000)" sketch:type="MSShapeGroup">
                <path d="M36,33 L24,33 L24,33 C24,30.2385763 21.7614237,28 19,28 C16.2385763,28 14,30.2385763 14,33 L8,33 L8,22 L34,22 L34,9 L34,9 L45,9 L53,21 L53,33 L46,33 C46,30.2385763 43.7614237,28 41,28 C38.2385763,28 36,30.2385763 36,33 Z" id="Rectangle-1722" stroke-linecap="round" fill="#5ECB66"></path>
                <circle id="Oval-1498" stroke-linecap="round" fill="#D8D8D8" cx="19" cy="33" r="5"></circle>
                <circle id="Oval-1497" stroke-linecap="round" fill="#D8D8D8" cx="41" cy="33" r="5"></circle>
                <rect id="Rectangle-1723" stroke-linecap="round" fill="#EA86A5" x="0" y="0" width="34" height="22"></rect>
                <path d="M39,13.3807083 L39,22 L47.6193752,22" id="Path-3804" stroke-linecap="round"></path>
                <path d="M0,4 L33.0151482,4" id="Line" stroke-linecap="square"></path>
                <path d="M0,8 L33.0151482,8" id="Line" stroke-linecap="square"></path>
                <path d="M0,12 L33.0151482,12" id="Line" stroke-linecap="square"></path>
            </g>
        </g>
    </g>
</svg>