<?xml version="1.0" encoding="UTF-8" standalone="no"?>
<svg width="60px" height="60px" viewBox="0 0 60 60" version="1.1" xmlns="http://www.w3.org/2000/svg" xmlns:xlink="http://www.w3.org/1999/xlink" xmlns:sketch="http://www.bohemiancoding.com/sketch/ns">
    <!-- Generator: Sketch 3.2.2 (9983) - http://www.bohemiancoding.com/sketch -->
    <title>Carfront</title>
    <desc>Created with Sketch.</desc>
    <defs></defs>
    <g id="colored" stroke="none" stroke-width="1" fill="none" fill-rule="evenodd" sketch:type="MSPage">
        <g id="Transport_sliced" sketch:type="MSLayerGroup" transform="translate(-480.000000, -600.000000)"></g>
        <g id="Transport" sketch:type="MSLayerGroup" transform="translate(-479.000000, -598.000000)" stroke="#314E55" stroke-width="2" stroke-linecap="round" stroke-linejoin="round">
            <g id="Carfront" transform="translate(483.000000, 615.000000)" sketch:type="MSShapeGroup">
                <path d="M0.698670683,15.9857447 C0.839432992,13.7844787 2.69590318,12.3758566 4.86775766,12.8290957 C4.86775766,12.8290957 19.3209248,16.0727744 26.500018,16.0727744 C33.6791113,16.0727744 48.1322465,12.8290957 48.1322465,12.8290957 C50.2940029,12.3711988 52.160735,13.787167 52.3013254,15.9857447 L52.8786631,25.0142553 C53.0194254,27.2155213 51.3460134,29 49.1298477,29 L3.87014838,29 C1.65897246,29 -0.0192574841,27.212833 0.12133292,25.0142553 L0.698670683,15.9857447 Z" id="Rectangle-1763" fill="#5ECB66"></path>
                <path d="M8.29443137,3.89605612 C8.78518647,1.74432374 10.9721641,0 13.1898126,0 L39.8101994,0 C42.0230887,0 44.2149576,1.74490303 44.7055806,3.89605612 L46.5538828,12 L6.44612915,12 L8.29443137,3.89605612 Z" id="Rectangle-1763" fill="#73C9C9"></path>
                <rect id="Rectangle-1764" fill="#D8D8D8" x="4" y="29" width="9" height="5"></rect>
                <rect id="Rectangle-1765" fill="#D8D8D8" x="40" y="29" width="9" height="5"></rect>
                <path d="M44.5,24 C46.4329966,24 48,22.4329966 48,20.5 C48,18.5670034 46.4329966,17 44.5,17 C42.5670034,17 41,18.5670034 41,20.5 C41,22.4329966 42.5670034,24 44.5,24 Z" id="Oval-1546" fill="#DBCF56"></path>
                <circle id="Oval-1546" fill="#DBCF56" cx="8.5" cy="20.5" r="3.5"></circle>
                <path d="M47.189061,11.8463751 L50.5580036,8.44425683" id="Path-3854"></path>
                <path d="M2.63105743,11.8463751 L6,8.44425683" id="Path-3854" transform="translate(4.315529, 10.145316) scale(-1, 1) translate(-4.315529, -10.145316) "></path>
                <path d="M14,3 L11,6" id="Line"></path>
            </g>
        </g>
    </g>
</svg>