<?xml version="1.0" encoding="UTF-8" standalone="no"?>
<svg width="60px" height="60px" viewBox="0 0 60 60" version="1.1" xmlns="http://www.w3.org/2000/svg" xmlns:xlink="http://www.w3.org/1999/xlink" xmlns:sketch="http://www.bohemiancoding.com/sketch/ns">
    <!-- Generator: Sketch 3.2.2 (9983) - http://www.bohemiancoding.com/sketch -->
    <title>Doublebus</title>
    <desc>Created with Sketch.</desc>
    <defs></defs>
    <g id="colored" stroke="none" stroke-width="1" fill="none" fill-rule="evenodd" sketch:type="MSPage">
        <g id="Transport_sliced" sketch:type="MSLayerGroup" transform="translate(-840.000000, -600.000000)"></g>
        <g id="Transport" sketch:type="MSLayerGroup" transform="translate(-839.000000, -598.000000)" stroke="#314E55" stroke-width="2" stroke-linejoin="round">
            <g id="Doublebus" transform="translate(840.000000, 608.000000)" sketch:type="MSShapeGroup">
                <path d="M41,38 L27,38 L27,38 C27,35.2385763 24.7614237,33 22,33 C19.2385763,33 17,35.2385763 17,38 C17,35.2385763 14.7614237,33 12,33 C9.23857625,33 7,35.2385763 7,38 L5.45649919,38 C2.4429579,38 0,35.5651225 0,32.5555265 L0,5.44447351 C0,2.43757382 2.43671227,0 5.45649919,0 L39.0086308,0 C49.4972744,0 58,8.50428254 58,19 L58,38 L51,38 C51,35.2385763 48.7614237,33 46,33 C43.2385763,33 41,35.2385763 41,38 Z" id="Rectangle-1771" stroke-linecap="round" fill="#E65F58"></path>
                <circle id="Oval-1553" stroke-linecap="round" fill="#D8D8D8" cx="12" cy="38" r="5"></circle>
                <circle id="Oval-1551" stroke-linecap="round" fill="#D8D8D8" cx="22" cy="38" r="5"></circle>
                <circle id="Oval-1552" stroke-linecap="round" fill="#D8D8D8" cx="46" cy="38" r="5"></circle>
                <rect id="Rectangle-1772" stroke-linecap="round" fill="#E9E7D1" x="0" y="18" width="52" height="8"></rect>
                <path d="M58,29 L53,29" id="Line" stroke-linecap="square"></path>
                <path d="M38,18 L38,26" id="Line" stroke-linecap="square"></path>
                <path d="M26,18 L26,26" id="Line" stroke-linecap="square"></path>
                <path d="M13,18 L13,26" id="Line" stroke-linecap="square"></path>
                <rect id="Rectangle-1773" stroke-linecap="round" fill="#E9E7D1" x="0" y="7" width="52" height="8"></rect>
                <path d="M38,7 L38,15" id="Line-370" stroke-linecap="square"></path>
                <path d="M26,7 L26,15" id="Line-371" stroke-linecap="square"></path>
                <path d="M13,7 L13,15" id="Line-372" stroke-linecap="square"></path>
            </g>
        </g>
    </g>
</svg>