<?xml version="1.0" encoding="UTF-8" standalone="no"?>
<svg width="60px" height="60px" viewBox="0 0 60 60" version="1.1" xmlns="http://www.w3.org/2000/svg" xmlns:xlink="http://www.w3.org/1999/xlink" xmlns:sketch="http://www.bohemiancoding.com/sketch/ns">
    <!-- Generator: Sketch 3.2.2 (9983) - http://www.bohemiancoding.com/sketch -->
    <title>Fantasyship</title>
    <desc>Created with Sketch.</desc>
    <defs></defs>
    <g id="colored" stroke="none" stroke-width="1" fill="none" fill-rule="evenodd" sketch:type="MSPage">
        <g id="Transport_sliced" sketch:type="MSLayerGroup" transform="translate(-240.000000, -840.000000)"></g>
        <g id="Transport" sketch:type="MSLayerGroup" transform="translate(-239.000000, -838.000000)" stroke="#314E55" stroke-width="2" stroke-linecap="round" stroke-linejoin="round">
            <g id="Fantasyship" transform="translate(242.000000, 843.000000)" sketch:type="MSShapeGroup">
                <path d="M27.5,32 C42.6878306,32 55,19.4241476 55,17 C55,14.5758524 42.6878306,2 27.5,2 C12.3121694,2 0,8.71572875 0,17 C0,25.2842712 12.3121694,32 27.5,32 Z" id="Oval-1587" fill="#81A4E3"></path>
                <ellipse id="Oval-1588" fill="#E4AD40" cx="27.5" cy="17" rx="27.5" ry="6"></ellipse>
                <path d="M42.2627682,5.46793396 L53.5132802,0.469910641 L49.1317926,9.90037818 L42.2627682,5.46793396 Z" id="Path-3941" fill="#E4AD40"></path>
                <path d="M46,17 L39,17" id="Line"></path>
                <path d="M17,44 L38,42 L38,50 L17,50 L17,44 Z" id="Rectangle-1806" fill="#D8D8D8"></path>
                <path d="M21.4843231,31.8981881 L35.5230931,41.5773803" id="Path-3943"></path>
                <path d="M19.9636129,43.4045294 L32.1198973,31.5108324" id="Path-3944"></path>
            </g>
        </g>
    </g>
</svg>