<?xml version="1.0" encoding="UTF-8" standalone="no"?>
<svg width="60px" height="60px" viewBox="0 0 60 60" version="1.1" xmlns="http://www.w3.org/2000/svg" xmlns:xlink="http://www.w3.org/1999/xlink" xmlns:sketch="http://www.bohemiancoding.com/sketch/ns">
    <!-- Generator: Sketch 3.2.2 (9983) - http://www.bohemiancoding.com/sketch -->
    <title>Fisherboat</title>
    <desc>Created with Sketch.</desc>
    <defs></defs>
    <g id="colored" stroke="none" stroke-width="1" fill="none" fill-rule="evenodd" sketch:type="MSPage">
        <g id="Transport_sliced" sketch:type="MSLayerGroup" transform="translate(-480.000000, -360.000000)"></g>
        <g id="Transport" sketch:type="MSLayerGroup" transform="translate(-479.000000, -358.000000)" stroke="#314E55" stroke-width="2" stroke-linejoin="round">
            <g id="Fisherboat" transform="translate(483.000000, 370.000000)" sketch:type="MSShapeGroup">
                <path d="M14.5714286,18 L0,18 L10,38 L42,38 L52,18 L37.4285714,18 L36,23 L16,23 L14.5714286,18 Z" id="Rectangle-1718" stroke-linecap="round" fill="#73C9C9"></path>
                <path d="M41,18 L41,5" id="Line" stroke-linecap="round"></path>
                <path d="M51,5 C51,2.23857625 48.7614237,0 46,0 C43.2385763,0 41,2.23857625 41,5" id="Oval-1495" stroke-linecap="round"></path>
                <path d="M15,30 C15,32.209139 16.790861,34 19,34 C21.209139,34 23,32.209139 23,30" id="Oval-1495" stroke-linecap="round"></path>
                <path d="M23,30 C23,32.209139 24.790861,34 27,34 C29.209139,34 31,32.209139 31,30" id="Oval-1495" stroke-linecap="round"></path>
                <path d="M23,29 L23,24" id="Line" stroke-linecap="square"></path>
            </g>
        </g>
    </g>
</svg>