<?xml version="1.0" encoding="UTF-8" standalone="no"?>
<svg width="60px" height="60px" viewBox="0 0 60 60" version="1.1" xmlns="http://www.w3.org/2000/svg" xmlns:xlink="http://www.w3.org/1999/xlink" xmlns:sketch="http://www.bohemiancoding.com/sketch/ns">
    <!-- Generator: Sketch 3.2.2 (9983) - http://www.bohemiancoding.com/sketch -->
    <title>Icecreamcar</title>
    <desc>Created with Sketch.</desc>
    <defs></defs>
    <g id="colored" stroke="none" stroke-width="1" fill="none" fill-rule="evenodd" sketch:type="MSPage">
        <g id="Transport_sliced" sketch:type="MSLayerGroup" transform="translate(-480.000000, -720.000000)"></g>
        <g id="Transport" sketch:type="MSLayerGroup" transform="translate(-479.000000, -718.000000)" stroke="#314E55" stroke-width="2" stroke-linejoin="round">
            <g id="Icecreamcar" transform="translate(481.000000, 723.000000)" sketch:type="MSShapeGroup">
                <path d="M14,50 L32,50 L32,12 L0,12 L0,50 L4,50 C4,47.2385763 6.23857625,45 9,45 C11.7614237,45 14,47.2385763 14,50 Z" id="Rectangle-1783" stroke-linecap="round" fill="#C59981"></path>
                <circle id="Oval-1570" stroke-linecap="round" fill="#D8D8D8" cx="9" cy="50" r="5"></circle>
                <path d="M36,24 L50.5714286,24 C50.5714286,24 54,28.3333333 54,30.5 L54,37 L36,37 L36,24 Z" id="Rectangle-1784" stroke-linecap="round" fill="#D8D8D8"></path>
                <path d="M47,24 L47,37.0384045" id="Line" stroke-linecap="square" fill="#D8D8D8"></path>
                <path d="M50,50 L56,50 L56,37 L32,37 L32,50 L40,50 C40,47.2385763 42.2385763,45 45,45 C47.7614237,45 50,47.2385763 50,50 Z" id="Rectangle-1785" stroke-linecap="round" fill="#C59981"></path>
                <circle id="Oval-1568" stroke-linecap="round" fill="#D8D8D8" cx="45" cy="50" r="5"></circle>
                <path d="M43,40 L45,40" id="Line" stroke-linecap="square"></path>
                <path d="M0,21 C0,23.209139 1.790861,25 4,25 C6.209139,25 8,23.209139 8,21" id="Oval-1577" stroke-linecap="round"></path>
                <rect id="Rectangle-1794" stroke-linecap="round" fill="#E65F58" x="0" y="12" width="8" height="13"></rect>
                <rect id="Rectangle-1794" stroke-linecap="round" fill="#E4AD40" x="8" y="12" width="8" height="13"></rect>
                <rect id="Rectangle-1794" stroke-linecap="round" fill="#E65F58" x="16" y="12" width="8" height="13"></rect>
                <rect id="Rectangle-1794" stroke-linecap="round" fill="#E4AD40" x="24" y="12" width="8" height="13"></rect>
                <rect id="Rectangle-1798" stroke-linecap="round" fill="#73C9C9" x="3" y="28" width="26" height="13"></rect>
                <path d="M8,32 L7,33" id="Line" stroke-linecap="round"></path>
                <g id="Oval-1577-+-Triangle-59" transform="translate(38.000000, 0.000000)" stroke-linecap="round">
                    <circle id="Oval-1577" fill="#E9E7D1" cx="6.5" cy="5.5" r="5.5"></circle>
                    <path d="M0,11 L13,11 L6.5,24 L0,11 Z" id="Triangle-59" fill="#D8D8D8"></path>
                </g>
                <path d="M42.5457184,19.704405 L48.598089,15.562719" id="Path-3908" stroke-linecap="round"></path>
                <path d="M40.2209884,15.4137166 L49.5907661,11.0007096" id="Path-3908" stroke-linecap="round"></path>
            </g>
        </g>
    </g>
</svg>