<?xml version="1.0" encoding="UTF-8" standalone="no"?>
<svg width="60px" height="60px" viewBox="0 0 60 60" version="1.1" xmlns="http://www.w3.org/2000/svg" xmlns:xlink="http://www.w3.org/1999/xlink" xmlns:sketch="http://www.bohemiancoding.com/sketch/ns">
    <!-- Generator: Sketch 3.2.2 (9983) - http://www.bohemiancoding.com/sketch -->
    <title>Mappoints</title>
    <desc>Created with Sketch.</desc>
    <defs></defs>
    <g id="colored" stroke="none" stroke-width="1" fill="none" fill-rule="evenodd" sketch:type="MSPage">
        <g id="Transport_sliced" sketch:type="MSLayerGroup" transform="translate(-720.000000, 0.000000)"></g>
        <g id="Transport" sketch:type="MSLayerGroup" transform="translate(-719.000000, 2.000000)" stroke="#314E55" stroke-width="2" stroke-linecap="round" stroke-linejoin="round">
            <g id="Mappoints" transform="translate(721.000000, 5.000000)" sketch:type="MSShapeGroup">
                <path d="M0,0 L19,3 L19,46 L0,43 L0,0 Z" id="Rectangle-1679" fill="#E4AD40"></path>
                <path d="M38,0 L57,3 L57,46 L38,43 L38,0 Z" id="Rectangle-1679" fill="#E4AD40"></path>
                <path d="M19,0 L38,3 L38,46 L19,43 L19,0 Z" id="Rectangle-1679" fill="#DBCF56" transform="translate(28.500000, 23.000000) scale(-1, 1) translate(-28.500000, -23.000000) "></path>
                <path d="M4.52656147,7.15902578 L8.74604694,11.3785113" id="Path-3738"></path>
                <path d="M45.3902573,24 L49.6097427,28.2194855" id="Path-3738"></path>
                <path d="M23.3902573,36.2687685 L27.6097427,40.488254" id="Path-3738"></path>
                <path d="M4.52656147,7.15902578 L8.74604694,11.3785113" id="Path-3739" transform="translate(6.636304, 9.268769) scale(-1, 1) translate(-6.636304, -9.268769) "></path>
                <path d="M45.3902573,24 L49.6097427,28.2194855" id="Path-3739" transform="translate(47.500000, 26.109743) scale(-1, 1) translate(-47.500000, -26.109743) "></path>
                <path d="M23.3902573,36.2687685 L27.6097427,40.488254" id="Path-3739" transform="translate(25.500000, 38.378511) scale(-1, 1) translate(-25.500000, -38.378511) "></path>
            </g>
        </g>
    </g>
</svg>