<?xml version="1.0" encoding="UTF-8" standalone="no"?>
<svg width="60px" height="60px" viewBox="0 0 60 60" version="1.1" xmlns="http://www.w3.org/2000/svg" xmlns:xlink="http://www.w3.org/1999/xlink" xmlns:sketch="http://www.bohemiancoding.com/sketch/ns">
    <!-- Generator: Sketch 3.2.2 (9983) - http://www.bohemiancoding.com/sketch -->
    <title>Monstertruck</title>
    <desc>Created with Sketch.</desc>
    <defs></defs>
    <g id="colored" stroke="none" stroke-width="1" fill="none" fill-rule="evenodd" sketch:type="MSPage">
        <g id="Transport_sliced" sketch:type="MSLayerGroup" transform="translate(-720.000000, -840.000000)"></g>
        <g id="Transport" sketch:type="MSLayerGroup" transform="translate(-719.000000, -838.000000)" stroke="#314E55" stroke-width="2" stroke-linejoin="round">
            <g id="Monstertruck" transform="translate(721.000000, 840.000000)" sketch:type="MSShapeGroup">
                <circle id="Oval-1595" stroke-linecap="round" fill="#C59981" cx="13" cy="40" r="13"></circle>
                <circle id="Oval-1597" stroke-linecap="round" fill="#D8D8D8" cx="13" cy="40" r="5"></circle>
                <circle id="Oval-1595" stroke-linecap="round" fill="#C59981" cx="44" cy="40" r="13"></circle>
                <circle id="Oval-1596" stroke-linecap="round" fill="#D8D8D8" cx="44" cy="40" r="5"></circle>
                <path d="M13,27 L13,29 M22.1923882,30.8076118 L20.7781746,32.2218254 M26,40 L24,40 M22.1923882,49.1923882 L20.7781746,47.7781746 M13,53 L13,51 M3.80761184,49.1923882 L5.22182541,47.7781746 M3.83475851e-17,40 L2,40 M3.80761184,30.8076118 L5.22182541,32.2218254" id="Line" stroke-linecap="round"></path>
                <path d="M44,27 L44,29 M53.1923882,30.8076118 L51.7781746,32.2218254 M57,40 L55,40 M53.1923882,49.1923882 L51.7781746,47.7781746 M44,53 L44,51 M34.8076118,49.1923882 L36.2218254,47.7781746 M31,40 L33,40 M34.8076118,30.8076118 L36.2218254,32.2218254" id="Line" stroke-linecap="round"></path>
                <path d="M13,15 L6,15 L6,20.0000567 C6,22.2003465 7.79529033,24 10.0098932,24 L49.9901068,24 C52.2059475,24 54,22.2091644 54,20.0000567 L54,18.9999433 C54,16.7996535 52.2047097,15 49.9901068,15 L34.4855499,15 L32,13 L13,13 L13,15 Z" id="Rectangle-1813" stroke-linecap="round" fill="#73C9C9"></path>
                <path d="M53,19 L50,19" id="Line" stroke-linecap="square"></path>
                <path d="M8.42971523,14.7665794 L7.21046192,11 L2.12042447,11" id="Path-3967" stroke-linecap="round"></path>
                <path d="M41.4891061,23.9910315 L41.9237251,27.2341907" id="Path-3968" stroke-linecap="round"></path>
                <path d="M15.2441085,24.0664362 L14.6655007,26.9966091" id="Path-3969" stroke-linecap="round"></path>
                <path d="M13,7 L30,7 L32,13 L13,13 L13,7 Z" id="Rectangle-1815" stroke-linecap="round" fill="#E9E7D1"></path>
                <rect id="Rectangle-1816" stroke-linecap="round" fill="#D8D8D8" x="41" y="8" width="4" height="7"></rect>
                <path d="M47,4 L48,3" id="Line" stroke-linecap="square"></path>
                <path d="M41,1 L40,0" id="Line" stroke-linecap="square"></path>
            </g>
        </g>
    </g>
</svg>