<?xml version="1.0" encoding="UTF-8" standalone="no"?>
<svg width="60px" height="60px" viewBox="0 0 60 60" version="1.1" xmlns="http://www.w3.org/2000/svg" xmlns:xlink="http://www.w3.org/1999/xlink" xmlns:sketch="http://www.bohemiancoding.com/sketch/ns">
    <!-- Generator: Sketch 3.2.2 (9983) - http://www.bohemiancoding.com/sketch -->
    <title>Motohelmet</title>
    <desc>Created with Sketch.</desc>
    <defs></defs>
    <g id="colored" stroke="none" stroke-width="1" fill="none" fill-rule="evenodd" sketch:type="MSPage">
        <g id="Transport_sliced" sketch:type="MSLayerGroup" transform="translate(-120.000000, -840.000000)"></g>
        <g id="Transport" sketch:type="MSLayerGroup" transform="translate(-119.000000, -838.000000)" stroke="#314E55" stroke-width="2" stroke-linecap="round" stroke-linejoin="round">
            <g id="Motohelmet" transform="translate(128.000000, 846.000000)" sketch:type="MSShapeGroup">
                <path d="M41.86453,36.1345244 C42.251535,34.7415916 42.5078399,33.3001086 42.6183046,31.8240845 L43.3816954,21.6236989 C44.2756302,9.67899037 35.2952396,0 23.3238109,0 L21.6761891,0 C9.70892784,0 0,9.70712403 0,21.6814684 L0,31.7663151 C0,37.2577268 2.04288648,42.2732878 5.4104407,46.0940889 L41.86453,36.1345244 Z" id="Rectangle-1804" fill="#73C9C9"></path>
                <path d="M0,20.964401 L21.6651538,17.3467189 C26.0016288,16.6226074 28.1322833,19.3230057 26.4269748,23.3714118 L22.9114227,31.7173398 L0,31.964401 L0,20.964401 Z" id="Rectangle-1805" fill="#E4AD40"></path>
                <circle id="Oval-1586" fill="#D26CBA" cx="34" cy="25" r="3"></circle>
                <path d="M23,21 L20,24" id="Line"></path>
                <path d="M9.03257988,48.0991331 L40.8204431,39.4196726" id="Path-3940"></path>
            </g>
        </g>
    </g>
</svg>