<?xml version="1.0" encoding="UTF-8" standalone="no"?>
<svg width="60px" height="60px" viewBox="0 0 60 60" version="1.1" xmlns="http://www.w3.org/2000/svg" xmlns:xlink="http://www.w3.org/1999/xlink" xmlns:sketch="http://www.bohemiancoding.com/sketch/ns">
    <!-- Generator: Sketch 3.2.2 (9983) - http://www.bohemiancoding.com/sketch -->
    <title>Oldship</title>
    <desc>Created with Sketch.</desc>
    <defs></defs>
    <g id="colored" stroke="none" stroke-width="1" fill="none" fill-rule="evenodd" sketch:type="MSPage">
        <g id="Transport_sliced" sketch:type="MSLayerGroup" transform="translate(-120.000000, -480.000000)"></g>
        <g id="Transport" sketch:type="MSLayerGroup" transform="translate(-119.000000, -478.000000)" stroke="#314E55" stroke-width="2" stroke-linejoin="round">
            <g id="Oldship" transform="translate(121.000000, 482.000000)" sketch:type="MSShapeGroup">
                <path d="M0,35 L36.8719101,35 L39.4115824,31 L55,31 L50,50 L31.4990536,50 C26.2528711,50 18.4897081,47.6066192 14.1506686,44.6481831 L0,35 Z" id="Rectangle-1736" stroke-linecap="round" fill="#EAEAEA"></path>
                <rect id="Rectangle-1737" stroke-linecap="round" x="16" y="29" width="4" height="6"></rect>
                <path d="M11,18.5 C11,9.39534402 9,7 9,7 L24,7 C24,7 26,10.8927314 26,18.5 C26,26.1072686 24,30 24,30 L9,30 C9,30 11,27.604656 11,18.5 Z" id="Rectangle-1738" stroke-linecap="round" fill="#E65F58" transform="translate(17.500000, 18.500000) scale(-1, 1) translate(-17.500000, -18.500000) "></path>
                <path d="M29,35 L29,0" id="Line" stroke-linecap="square"></path>
                <path d="M29,11 L29,3 L39,7 L29,11 Z" id="Triangle-59" stroke-linecap="round" fill="#E65F58"></path>
                <circle id="Oval-1504" stroke-linecap="round" cx="23" cy="41" r="1"></circle>
                <circle id="Oval-1505" stroke-linecap="round" cx="32" cy="41" r="1"></circle>
                <circle id="Oval-1506" stroke-linecap="round" cx="41" cy="41" r="1"></circle>
            </g>
        </g>
    </g>
</svg>