<?xml version="1.0" encoding="UTF-8" standalone="no"?>
<svg width="60px" height="60px" viewBox="0 0 60 60" version="1.1" xmlns="http://www.w3.org/2000/svg" xmlns:xlink="http://www.w3.org/1999/xlink" xmlns:sketch="http://www.bohemiancoding.com/sketch/ns">
    <!-- Generator: Sketch 3.2.2 (9983) - http://www.bohemiancoding.com/sketch -->
    <title>Oldtrain</title>
    <desc>Created with Sketch.</desc>
    <defs></defs>
    <g id="colored" stroke="none" stroke-width="1" fill="none" fill-rule="evenodd" sketch:type="MSPage">
        <g id="Transport_sliced" sketch:type="MSLayerGroup" transform="translate(0.000000, -480.000000)"></g>
        <g id="Transport" sketch:type="MSLayerGroup" transform="translate(1.000000, -478.000000)" stroke="#314E55" stroke-width="2" stroke-linejoin="round">
            <g id="Oldtrain" transform="translate(1.000000, 480.000000)" sketch:type="MSShapeGroup">
                <path d="M18,21 L5.64285714,21 L1,29 L5.64285714,37 L53,37 L53,21 L35,21 L35,18 L18,18 L18,21 Z" id="Rectangle-1731" stroke-linecap="round" fill="#81A4E3"></path>
                <path d="M12,37 C12,40.8659932 15.1340068,44 19,44 C22.8659932,44 26,40.8659932 26,37" id="Oval-1502" stroke-linecap="round" fill="#D8D8D8"></path>
                <path d="M29,37 C29,40.8659932 32.1340068,44 36,44 C39.8659932,44 43,40.8659932 43,37" id="Oval-1502" stroke-linecap="round" fill="#D8D8D8"></path>
                <path d="M0,37 L56.0089264,37" id="Line" stroke-linecap="square"></path>
                <rect id="Rectangle-1733" stroke-linecap="round" fill="#73C9C9" x="41" y="9" width="15" height="12"></rect>
                <rect id="Rectangle-1734" stroke-linecap="round" fill="#D8D8D8" x="10" y="14" width="3" height="7"></rect>
                <rect id="Rectangle-1735" stroke-linecap="round" fill="#D8D8D8" x="7" y="9" width="9" height="6"></rect>
                <path d="M11.4014978,7.31470369 C11.4014978,7.31470369 12.4654524,7.47505671 13.8769458,4.40701404 C15.2884392,1.33897137 18.1722061,-1.17656482 24.307644,1.33897148 C30.4430818,3.85450777 32.5878013,4.77492092 37.1281175,4.40701423 C41.6684337,4.03910754 43.7174577,-0.813831233 55.3967104,2.19246278" id="Path-3817" stroke-linecap="round"></path>
                <circle id="Oval-1502" stroke-linecap="round" fill="#D8D8D8" cx="4.5" cy="40.5" r="3.5"></circle>
                <circle id="Oval-1502" stroke-linecap="round" fill="#D8D8D8" cx="51.5" cy="40.5" r="3.5"></circle>
            </g>
        </g>
    </g>
</svg>