<?xml version="1.0" encoding="UTF-8" standalone="no"?>
<svg width="60px" height="60px" viewBox="0 0 60 60" version="1.1" xmlns="http://www.w3.org/2000/svg" xmlns:xlink="http://www.w3.org/1999/xlink" xmlns:sketch="http://www.bohemiancoding.com/sketch/ns">
    <!-- Generator: Sketch 3.2.2 (9983) - http://www.bohemiancoding.com/sketch -->
    <title>Pinmap</title>
    <desc>Created with Sketch.</desc>
    <defs></defs>
    <g id="colored" stroke="none" stroke-width="1" fill="none" fill-rule="evenodd" sketch:type="MSPage">
        <g id="Transport_sliced" sketch:type="MSLayerGroup" transform="translate(-240.000000, 0.000000)"></g>
        <g id="Transport" sketch:type="MSLayerGroup" transform="translate(-239.000000, 2.000000)" stroke="#314E55" stroke-width="2" stroke-linecap="round" stroke-linejoin="round">
            <g id="Pinmap" transform="translate(249.000000, 0.000000)" sketch:type="MSShapeGroup">
                <path d="M20,54 C26.2200584,54 40,31.045695 40,20 C40,8.954305 31.045695,0 20,0 C8.954305,0 0,8.954305 0,20 C0,31.045695 13.7799416,54 20,54 Z M20,28 C25.5228475,28 30,23.5228475 30,18 C30,12.4771525 25.5228475,8 20,8 C14.4771525,8 10,12.4771525 10,18 C10,23.5228475 14.4771525,28 20,28 Z" id="Oval-1457" fill="#EA86A5"></path>
                <circle id="Oval-1459" fill="#E4AD40" cx="20" cy="18" r="6"></circle>
            </g>
        </g>
    </g>
</svg>