<?xml version="1.0" encoding="UTF-8" standalone="no"?>
<svg width="60px" height="60px" viewBox="0 0 60 60" version="1.1" xmlns="http://www.w3.org/2000/svg" xmlns:xlink="http://www.w3.org/1999/xlink" xmlns:sketch="http://www.bohemiancoding.com/sketch/ns">
    <!-- Generator: Sketch 3.2.2 (9983) - http://www.bohemiancoding.com/sketch -->
    <title>Productionship</title>
    <desc>Created with Sketch.</desc>
    <defs></defs>
    <g id="colored" stroke="none" stroke-width="1" fill="none" fill-rule="evenodd" sketch:type="MSPage">
        <g id="Transport_sliced" sketch:type="MSLayerGroup" transform="translate(-360.000000, -360.000000)"></g>
        <g id="Transport" sketch:type="MSLayerGroup" transform="translate(-359.000000, -358.000000)" stroke="#314E55" stroke-width="2" stroke-linecap="round" stroke-linejoin="round">
            <g id="Productionship" transform="translate(361.000000, 359.000000)" sketch:type="MSShapeGroup">
                <path d="M6,37 L0,37 L5,53 L50,53 L55,37 L38,37 L38,41 L6,41 L6,37 Z" id="Rectangle-1713" fill="#EAEAEA"></path>
                <rect id="Rectangle-1715" fill="#D8D8D8" x="6" y="23" width="32" height="18"></rect>
                <rect id="Rectangle-1716" fill="#EAEAEA" x="11" y="11" width="7" height="13"></rect>
                <rect id="Rectangle-1716" fill="#EAEAEA" x="21" y="11" width="7" height="13"></rect>
                <circle id="Oval-1492" fill="#E4AD40" cx="13" cy="32" r="3"></circle>
                <circle id="Oval-1492" fill="#E4AD40" cx="22" cy="32" r="3"></circle>
                <circle id="Oval-1492" fill="#E4AD40" cx="31" cy="32" r="3"></circle>
                <path d="M24.057777,8.81049387 C24.057777,8.81049387 22.7937617,7.77702057 24.5065544,4.97441787 C26.2193472,2.17181516 23.6943247,0.366039932 23.6943247,0.366039932" id="Path-3797"></path>
                <path d="M14.2023221,8.81049387 C14.2023221,8.81049387 12.9383067,7.77702057 14.6510995,4.97441787 C16.3638922,2.17181516 13.8388698,0.366039932 13.8388698,0.366039932" id="Path-3797"></path>
            </g>
        </g>
    </g>
</svg>