<?xml version="1.0" encoding="UTF-8" standalone="no"?>
<svg width="60px" height="60px" viewBox="0 0 60 60" version="1.1" xmlns="http://www.w3.org/2000/svg" xmlns:xlink="http://www.w3.org/1999/xlink" xmlns:sketch="http://www.bohemiancoding.com/sketch/ns">
    <!-- Generator: Sketch 3.2.2 (9983) - http://www.bohemiancoding.com/sketch -->
    <title>Roadlights</title>
    <desc>Created with Sketch.</desc>
    <defs></defs>
    <g id="colored" stroke="none" stroke-width="1" fill="none" fill-rule="evenodd" sketch:type="MSPage">
        <g id="Transport_sliced" sketch:type="MSLayerGroup" transform="translate(-720.000000, -240.000000)"></g>
        <g id="Transport" sketch:type="MSLayerGroup" transform="translate(-719.000000, -238.000000)" stroke="#314E55" stroke-width="2" stroke-linecap="round" stroke-linejoin="round">
            <g id="Roadlights" transform="translate(738.000000, 241.000000)" sketch:type="MSShapeGroup">
                <path d="M4.33431215,36 C1.70773015,34.0914473 0,30.9951545 0,27.5 C0,24.0048455 1.70773015,20.9085527 4.33431215,19 C1.70773015,17.0914473 0,13.9951545 0,10.5 C0,4.70101013 4.70101013,0 10.5,0 C16.2989899,0 21,4.70101013 21,10.5 C21,13.9951545 19.2922698,17.0914473 16.6656878,19 L16.6656878,19 C19.2922698,20.9085527 21,24.0048455 21,27.5 C21,30.9951545 19.2922698,34.0914473 16.6656878,36 C19.2922698,37.9085527 21,41.0048455 21,44.5 C21,50.2989899 16.2989899,55 10.5,55 C4.70101013,55 0,50.2989899 0,44.5 C0,41.0048455 1.70773015,37.9085527 4.33431215,36 Z" id="Oval-1485" fill="#D8D8D8"></path>
                <circle id="Oval-1486" fill="#E65F58" cx="10.5" cy="10.5" r="6.5"></circle>
                <circle id="Oval-1486" fill="#F28544" cx="10.5" cy="27.5" r="6.5"></circle>
                <circle id="Oval-1486" fill="#5ECB66" cx="10.5" cy="44.5" r="6.5"></circle>
            </g>
        </g>
    </g>
</svg>