<?xml version="1.0" encoding="UTF-8" standalone="no"?>
<svg width="60px" height="60px" viewBox="0 0 60 60" version="1.1" xmlns="http://www.w3.org/2000/svg" xmlns:xlink="http://www.w3.org/1999/xlink" xmlns:sketch="http://www.bohemiancoding.com/sketch/ns">
    <!-- Generator: Sketch 3.2.2 (9983) - http://www.bohemiancoding.com/sketch -->
    <title>Rulotecar</title>
    <desc>Created with Sketch.</desc>
    <defs></defs>
    <g id="colored" stroke="none" stroke-width="1" fill="none" fill-rule="evenodd" sketch:type="MSPage">
        <g id="Transport_sliced" sketch:type="MSLayerGroup" transform="translate(-360.000000, -480.000000)"></g>
        <g id="Transport" sketch:type="MSLayerGroup" transform="translate(-359.000000, -478.000000)" stroke="#314E55" stroke-width="2" stroke-linejoin="round">
            <g id="Rulotecar" transform="translate(362.000000, 495.000000)" sketch:type="MSShapeGroup">
                <path d="M29,9 L29,25 L16,25 C16,22.790861 14.209139,21 12,21 C9.790861,21 8,22.790861 8,25 L0,25 L0,3 L27.6691936,3 L32.3210096,0.383973211 L52,0 L52,9 L29,9 Z" id="Rectangle-1739" stroke-linecap="round" fill="#5ECB66"></path>
                <path d="M47,25 L54,25 L46,12 L32,12 L32,25 L39,25 C39,22.790861 40.790861,21 43,21 C45.209139,21 47,22.790861 47,25 Z" id="Rectangle-1740" stroke-linecap="round" fill="#D8D8D8"></path>
                <circle id="Oval-1511" stroke-linecap="round" fill="#D8D8D8" cx="12" cy="25" r="4"></circle>
                <circle id="Oval-1510" stroke-linecap="round" fill="#D8D8D8" cx="43" cy="25" r="4"></circle>
                <rect id="Rectangle-1742" stroke-linecap="round" fill="#DBCF56" x="3" y="8" width="23" height="7"></rect>
                <path d="M10,9 L10,14" id="Line" stroke-linecap="square" fill="#D8D8D8"></path>
                <path d="M35,15 L35,18" id="Line" stroke-linecap="square"></path>
            </g>
        </g>
    </g>
</svg>