<?xml version="1.0" encoding="UTF-8" standalone="no"?>
<svg width="60px" height="60px" viewBox="0 0 60 60" version="1.1" xmlns="http://www.w3.org/2000/svg" xmlns:xlink="http://www.w3.org/1999/xlink" xmlns:sketch="http://www.bohemiancoding.com/sketch/ns">
    <!-- Generator: Sketch 3.2.2 (9983) - http://www.bohemiancoding.com/sketch -->
    <title>Scooter</title>
    <desc>Created with Sketch.</desc>
    <defs></defs>
    <g id="colored" stroke="none" stroke-width="1" fill="none" fill-rule="evenodd" sketch:type="MSPage">
        <g id="Transport_sliced" sketch:type="MSLayerGroup" transform="translate(-720.000000, -720.000000)"></g>
        <g id="Transport" sketch:type="MSLayerGroup" transform="translate(-719.000000, -718.000000)" stroke="#314E55" stroke-width="2" stroke-linejoin="round">
            <g id="Scooter" transform="translate(726.000000, 722.000000)" sketch:type="MSShapeGroup">
                <path d="M13.6573247,12.9968185 C13.846579,9.68486709 16.6765363,7 20.0006595,7 L27.9993405,7 C31.3134132,7 34.1536157,9.6882755 34.3426753,12.9968185 L35.6573247,36.0031815 C35.846579,39.3151329 33.3167544,42 30.0056959,42 L17.9943041,42 C14.6837413,42 12.1536157,39.3117245 12.3426753,36.0031815 L13.6573247,12.9968185 Z" id="Rectangle-1822" stroke-linecap="round" fill="#E65F58"></path>
                <rect id="Rectangle-1799" stroke-linecap="round" fill="#C59981" x="19" y="29" width="10" height="25"></rect>
                <circle id="Oval-1578" stroke-linecap="round" fill="#DBCF56" cx="24" cy="7" r="7"></circle>
                <path d="M25,1 L18,9" id="Line" stroke-linecap="square"></path>
                <path d="M31.2160844,7.17953814 L36.9983478,3.02893771" id="Path-3911" stroke-linecap="round"></path>
                <path d="M11.0016522,7.17953814 L16.7839156,3.02893771" id="Path-3911" stroke-linecap="round" transform="translate(13.892784, 5.104238) scale(-1, 1) translate(-13.892784, -5.104238) "></path>
                <rect id="Rectangle-1800" stroke-linecap="round" fill="#D8D8D8" x="37" y="1" width="11" height="4"></rect>
                <rect id="Rectangle-1800" stroke-linecap="round" fill="#D8D8D8" x="0" y="1" width="11" height="4"></rect>
            </g>
        </g>
    </g>
</svg>