<?xml version="1.0" encoding="UTF-8" standalone="no"?>
<svg width="60px" height="60px" viewBox="0 0 60 60" version="1.1" xmlns="http://www.w3.org/2000/svg" xmlns:xlink="http://www.w3.org/1999/xlink" xmlns:sketch="http://www.bohemiancoding.com/sketch/ns">
    <!-- Generator: Sketch 3.2.2 (9983) - http://www.bohemiancoding.com/sketch -->
    <title>Sub</title>
    <desc>Created with Sketch.</desc>
    <defs></defs>
    <g id="colored" stroke="none" stroke-width="1" fill="none" fill-rule="evenodd" sketch:type="MSPage">
        <g id="Transport_sliced" sketch:type="MSLayerGroup" transform="translate(-600.000000, -720.000000)"></g>
        <g id="Transport" sketch:type="MSLayerGroup" transform="translate(-599.000000, -718.000000)" stroke="#314E55" stroke-width="2" stroke-linejoin="round">
            <g id="Sub" transform="translate(602.000000, 727.000000)" sketch:type="MSShapeGroup">
                <path d="M21,21 L9,21 L5,31 L9,41 L43.9990734,41 C49.5207109,41 54,36.5228475 54,31 C54,25.4759382 49.5224327,21 43.9990734,21 L38,21 L38,10 L21,10 L21,21 Z" id="Rectangle-1788" stroke-linecap="round" fill="#EA86A5"></path>
                <path d="M1,29 L1,15" id="Line" stroke-linecap="round"></path>
                <path d="M1,47 L1,33" id="Line" stroke-linecap="round"></path>
                <circle id="Oval-1569" stroke-linecap="round" fill="#DBCF56" cx="46" cy="29" r="3"></circle>
                <circle id="Oval-1569" stroke-linecap="round" fill="#DBCF56" cx="35" cy="29" r="3"></circle>
                <circle id="Oval-1569" stroke-linecap="round" fill="#DBCF56" cx="24" cy="29" r="3"></circle>
                <circle id="Oval-1569" stroke-linecap="round" fill="#DBCF56" cx="13" cy="29" r="3"></circle>
                <rect id="Rectangle-1790" stroke-linecap="round" fill="#73C9C9" x="26" y="14" width="12" height="5"></rect>
                <path d="M25,10 L25,0" id="Line" stroke-linecap="square"></path>
            </g>
        </g>
    </g>
</svg>