<?xml version="1.0" encoding="UTF-8" standalone="no"?>
<svg width="60px" height="60px" viewBox="0 0 60 60" version="1.1" xmlns="http://www.w3.org/2000/svg" xmlns:xlink="http://www.w3.org/1999/xlink" xmlns:sketch="http://www.bohemiancoding.com/sketch/ns">
    <!-- Generator: Sketch 3.2.2 (9983) - http://www.bohemiancoding.com/sketch -->
    <title>Taxicar</title>
    <desc>Created with Sketch.</desc>
    <defs></defs>
    <g id="colored" stroke="none" stroke-width="1" fill="none" fill-rule="evenodd" sketch:type="MSPage">
        <g id="Transport_sliced" sketch:type="MSLayerGroup" transform="translate(-600.000000, -600.000000)"></g>
        <g id="Transport" sketch:type="MSLayerGroup" transform="translate(-599.000000, -598.000000)" stroke="#314E55" stroke-width="2" stroke-linejoin="round">
            <g id="Taxicar" transform="translate(603.000000, 609.000000)" sketch:type="MSShapeGroup">
                <path d="M0.698670683,21.9857447 C0.839432992,19.7844787 2.74200868,18 4.96271828,18 L48.0372778,18 C50.2514839,18 52.160735,19.787167 52.3013254,21.9857447 L52.8786631,31.0142553 C53.0194254,33.2155213 51.3460134,35 49.1298477,35 L3.87014838,35 C1.65897246,35 -0.0192574841,33.212833 0.12133292,31.0142553 L0.698670683,21.9857447 Z" id="Rectangle-1763" stroke-linecap="round" fill="#C59981"></path>
                <path d="M8.29443137,9.89605612 C8.78518647,7.74432374 10.9721641,6 13.1898126,6 L39.8101994,6 C42.0230887,6 44.2149576,7.74490303 44.7055806,9.89605612 L46.5538828,18 L6.44612915,18 L8.29443137,9.89605612 Z" id="Rectangle-1763" stroke-linecap="round" fill="#73C9C9"></path>
                <rect id="Rectangle-1764" stroke-linecap="round" fill="#D8D8D8" x="6" y="35" width="6" height="6"></rect>
                <rect id="Rectangle-1765" stroke-linecap="round" fill="#D8D8D8" x="41" y="35" width="6" height="6"></rect>
                <path d="M44.5,30 C46.4329966,30 48,28.4329966 48,26.5 C48,24.5670034 46.4329966,23 44.5,23 C42.5670034,23 41,24.5670034 41,26.5 C41,28.4329966 42.5670034,30 44.5,30 Z" id="Oval-1546" stroke-linecap="round" fill="#E4AD40"></path>
                <circle id="Oval-1546" stroke-linecap="round" fill="#E4AD40" cx="8.5" cy="26.5" r="3.5"></circle>
                <path d="M47.189061,17.8463751 L50.5580036,14.4442568" id="Path-3854" stroke-linecap="round"></path>
                <path d="M2.63105743,17.8463751 L6,14.4442568" id="Path-3854" stroke-linecap="round" transform="translate(4.315529, 16.145316) scale(-1, 1) translate(-4.315529, -16.145316) "></path>
                <path d="M21,27 L32,27" id="Line" stroke-linecap="square"></path>
                <path d="M21,30 L32,30" id="Line" stroke-linecap="square"></path>
                <path d="M14,9 L11,12" id="Line" stroke-linecap="round"></path>
                <path d="M17,3 L21,3" id="Line" stroke-linecap="square"></path>
                <path d="M21,1 L25,1" id="Line" stroke-linecap="square"></path>
                <path d="M25,3 L28,3" id="Line" stroke-linecap="square"></path>
                <path d="M28,1 L32,1" id="Line" stroke-linecap="square"></path>
                <path d="M32,3 L36,3" id="Line" stroke-linecap="square"></path>
            </g>
        </g>
    </g>
</svg>