<?xml version="1.0" encoding="UTF-8" standalone="no"?>
<svg width="60px" height="60px" viewBox="0 0 60 60" version="1.1" xmlns="http://www.w3.org/2000/svg" xmlns:xlink="http://www.w3.org/1999/xlink" xmlns:sketch="http://www.bohemiancoding.com/sketch/ns">
    <!-- Generator: Sketch 3.2.2 (9983) - http://www.bohemiancoding.com/sketch -->
    <title>Titanic</title>
    <desc>Created with Sketch.</desc>
    <defs></defs>
    <g id="colored" stroke="none" stroke-width="1" fill="none" fill-rule="evenodd" sketch:type="MSPage">
        <g id="Transport_sliced" sketch:type="MSLayerGroup" transform="translate(-240.000000, -480.000000)"></g>
        <g id="Transport" sketch:type="MSLayerGroup" transform="translate(-239.000000, -478.000000)" stroke="#314E55" stroke-width="2" stroke-linejoin="round">
            <g id="Titanic" transform="translate(241.000000, 485.000000)" sketch:type="MSShapeGroup">
                <path d="M0,34 L57,34 L43,45 L14,45 L0,34 Z" id="Rectangle-1817" stroke-linecap="round" fill="#EAEAEA"></path>
                <rect id="Rectangle-1818" stroke-linecap="round" fill="#D8D8D8" x="3" y="21" width="51" height="13"></rect>
                <rect id="Rectangle-1818" stroke-linecap="round" fill="#81A4E3" x="7" y="12" width="43" height="9"></rect>
                <rect id="Rectangle-1820" stroke-linecap="round" fill="#D8D8D8" x="13" y="0" width="11" height="12"></rect>
                <path d="M17,4 L20,4" id="Line" stroke-linecap="square"></path>
                <path d="M7,25 L9,25" id="Line" stroke-linecap="square"></path>
                <path d="M19,25 L21,25" id="Line" stroke-linecap="square"></path>
                <path d="M31,25 L33,25" id="Line" stroke-linecap="square"></path>
                <path d="M13,25 L15,25" id="Line" stroke-linecap="square"></path>
                <path d="M25,25 L27,25" id="Line" stroke-linecap="square"></path>
                <path d="M37,25 L39,25" id="Line" stroke-linecap="square"></path>
                <path d="M43,25 L45,25" id="Line" stroke-linecap="square"></path>
                <path d="M10,30 L12,30" id="Line-379" stroke-linecap="square"></path>
                <path d="M22,30 L24,30" id="Line-374" stroke-linecap="square"></path>
                <path d="M34,30 L36,30" id="Line-375" stroke-linecap="square"></path>
                <path d="M16,30 L18,30" id="Line-376" stroke-linecap="square"></path>
                <path d="M28,30 L30,30" id="Line-377" stroke-linecap="square"></path>
                <path d="M40,30 L42,30" id="Line-378" stroke-linecap="square"></path>
                <path d="M46,30 L48,30" id="Line-378" stroke-linecap="square"></path>
                <path d="M11,16 L27.0312195,16" id="Line" stroke-linecap="square"></path>
                <path d="M30,16 L46.0312195,16" id="Line" stroke-linecap="square"></path>
            </g>
        </g>
    </g>
</svg>