<?xml version="1.0" encoding="UTF-8" standalone="no"?>
<svg width="60px" height="60px" viewBox="0 0 60 60" version="1.1" xmlns="http://www.w3.org/2000/svg" xmlns:xlink="http://www.w3.org/1999/xlink" xmlns:sketch="http://www.bohemiancoding.com/sketch/ns">
    <!-- Generator: Sketch 3.2.2 (9983) - http://www.bohemiancoding.com/sketch -->
    <title>Tram</title>
    <desc>Created with Sketch.</desc>
    <defs></defs>
    <g id="colored" stroke="none" stroke-width="1" fill="none" fill-rule="evenodd" sketch:type="MSPage">
        <g id="Transport_sliced" sketch:type="MSLayerGroup" transform="translate(-840.000000, -480.000000)"></g>
        <g id="Transport" sketch:type="MSLayerGroup" transform="translate(-839.000000, -478.000000)" stroke="#314E55" stroke-width="2" stroke-linejoin="round">
            <g id="Tram" transform="translate(849.000000, 481.000000)" sketch:type="MSShapeGroup">
                <path d="M0,42 L40,42 L39.4970703,47.5322264 C39.222546,50.5519944 36.5359931,53 33.4947794,53 L6.50522057,53 C3.46477121,53 0.776825147,50.5450766 0.502929673,47.5322264 L0,42 Z" id="Rectangle-1821" stroke-linecap="round" fill="#C59981"></path>
                <path d="M4.23821539,20.9516 C4.65893741,18.2169068 7.2303666,16 10.0044356,16 L29.9955644,16 C32.7594379,16 35.3410378,18.2167454 35.7617846,20.9516 L38.2382154,37.0484 C38.6589374,39.7830932 36.7647948,42 33.9930877,42 L6.00691225,42 C3.24167097,42 1.34103775,39.7832546 1.76178461,37.0484 L4.23821539,20.9516 Z" id="Rectangle-1753" stroke-linecap="round" fill="#73C9C9"></path>
                <path d="M6,46 L11,46" id="Line" stroke-linecap="square" fill="#D8D8D8"></path>
                <path d="M29,46 L34,46" id="Line" stroke-linecap="square" fill="#D8D8D8"></path>
                <path d="M13,20 L8.47230744,24.5276928" id="Line" stroke-linecap="round" fill="#D8D8D8"></path>
                <path d="M23,16 L23,9 L11.8694392,0.987843836" id="Line-368" stroke-linecap="square"></path>
                <path d="M29.1305608,16 L29.1305608,9 L18,0.987843836" id="Line-369" stroke-linecap="square" transform="translate(23.565280, 8.493922) scale(-1, 1) translate(-23.565280, -8.493922) "></path>
            </g>
        </g>
    </g>
</svg>