<?xml version="1.0" encoding="UTF-8" standalone="no"?>
<svg class="travelballoon" width="60px" height="60px" viewBox="0 0 60 60" version="1.1" xmlns="http://www.w3.org/2000/svg" xmlns:xlink="http://www.w3.org/1999/xlink" xmlns:sketch="http://www.bohemiancoding.com/sketch/ns">    <!-- Generator: Sketch 3.2.2 (9983) - http://www.bohemiancoding.com/sketch -->
    <title>Travelballon</title>
    <desc>Created with Sketch.</desc>
    <defs><animate xlink:href="#swipeText" id="swipe" attributeName="x"
         from="1000" to="0" begin="0s" dur="0.5s" /></defs>
    <g id="colored" stroke="none" stroke-width="1" fill="none" fill-rule="evenodd" sketch:type="MSPage">
        <g id="Transport_sliced" sketch:type="MSLayerGroup" transform="translate(-120.000000, -720.000000)"></g>
        <g id="Transport" sketch:type="MSLayerGroup" transform="translate(-119.000000, -718.000000)" stroke="#314E55" stroke-width="2" stroke-linecap="round" stroke-linejoin="round">
            <g id="Travelballon" transform="translate(134.000000, 721.000000)" sketch:type="MSShapeGroup">
                <path d="M23,31.4400229 C28.8808431,28.935316 33,23.1351999 33,16.38 C33,7.3335758 25.6126984,0 16.5,0 C7.38730163,0 0,7.3335758 0,16.38 C0,23.5119548 4.59144195,29.57932 11,31.8279468 L11,39 L23,39 L23,31.4400229 Z" id="Oval-1562" fill="#EA86A5"></path>
                <path d="M16.877845,2.24367191e-11 C13.7131693,4.02899173 11.6035184,11.2554085 11.6035184,19.5 C11.6035184,27.7445915 13.7131693,34.9710083 16.877845,39 C20.0425207,34.9710083 22.1521716,27.7445915 22.1521716,19.5 C22.1521716,11.2554085 20.0425207,4.02899173 16.877845,-7.08766379e-13 Z" id="Oval-1563" fill="#D26CBA"></path>
                <path d="M11,47 L23,47 L22,53 L12,53 L11,47 Z" id="Rectangle-1779" fill="#81A4E3"></path>
                <path d="M19.9595557,47.0003547 L13.0211845,39.1011285" id="Path-3884"></path>
                <path d="M20.9595557,47.0003547 L14.0211845,39.1011285" id="Path-3885" transform="translate(17.490370, 43.050742) scale(-1, 1) translate(-17.490370, -43.050742) "></path>
            </g>
        </g>
    </g>
</svg>