<?xml version="1.0" encoding="UTF-8" standalone="no"?>
<svg width="60px" height="60px" viewBox="0 0 60 60" version="1.1" xmlns="http://www.w3.org/2000/svg" xmlns:xlink="http://www.w3.org/1999/xlink" xmlns:sketch="http://www.bohemiancoding.com/sketch/ns">
    <!-- Generator: Sketch 3.2.2 (9983) - http://www.bohemiancoding.com/sketch -->
    <title>Watercar</title>
    <desc>Created with Sketch.</desc>
    <defs></defs>
    <g id="colored" stroke="none" stroke-width="1" fill="none" fill-rule="evenodd" sketch:type="MSPage">
        <g id="Transport_sliced" sketch:type="MSLayerGroup" transform="translate(-360.000000, -720.000000)"></g>
        <g id="Transport" sketch:type="MSLayerGroup" transform="translate(-359.000000, -718.000000)" stroke="#314E55" stroke-width="2" stroke-linejoin="round">
            <g id="Watercar" transform="translate(361.000000, 728.000000)" sketch:type="MSShapeGroup">
                <path d="M14,42 L33,42 L33,10.0002441 C33,6.68722626 30.3158651,4 27.0048168,4 L5.99518319,4 C2.68653665,4 0,6.68640081 0,10.0002441 L0,42 L4,42 C4,39.2385763 6.23857625,37 9,37 C11.7614237,37 14,39.2385763 14,42 Z" id="Rectangle-1783" stroke-linecap="round" fill="#EAEAEA"></path>
                <circle id="Oval-1566" stroke-linecap="round" fill="#D8D8D8" cx="9" cy="42" r="5"></circle>
                <path d="M33,16 L50,16 C50,16 54,20.3333333 54,22.5 L54,29 L33,29 L33,16 Z" id="Rectangle-1784" stroke-linecap="round" fill="#73C9C9"></path>
                <path d="M47,16 L47,29.0384045" id="Line" stroke-linecap="square"></path>
                <path d="M50,42 L56,42 L56,29 L33,29 L33,42 L40,42 C40,39.2385763 42.2385763,37 45,37 C47.7614237,37 50,39.2385763 50,42 Z" id="Rectangle-1785" stroke-linecap="round" fill="#81A4E3"></path>
                <circle id="Oval-1567" stroke-linecap="round" fill="#D8D8D8" cx="45" cy="42" r="5"></circle>
                <path d="M0,12 L5.12310553,12" id="Line" stroke-linecap="square"></path>
                <path d="M0,22 L5.12310553,22" id="Line" stroke-linecap="square"></path>
                <path d="M0,17 L5.12310553,17" id="Line" stroke-linecap="square"></path>
                <path d="M0,27 L5.12310553,27" id="Line" stroke-linecap="square"></path>
                <rect id="Rectangle-1786" stroke-linecap="round" fill="#D8D8D8" x="6" y="0" width="8" height="4"></rect>
                <rect id="Rectangle-1787" stroke-linecap="round" fill="#D8D8D8" x="19" y="0" width="8" height="4"></rect>
                <path d="M43,32 L45,32" id="Line" stroke-linecap="square"></path>
            </g>
        </g>
    </g>
</svg>