<?xml version="1.0" encoding="utf-8"?>
<!-- Generator: Adobe Illustrator 19.0.0, SVG Export Plug-In . SVG Version: 6.00 Build 0)  -->
<!DOCTYPE svg PUBLIC "-//W3C//DTD SVG 1.1//EN" "http://www.w3.org/Graphics/SVG/1.1/DTD/svg11.dtd">
<svg version="1.1" id="Layer_1" xmlns="http://www.w3.org/2000/svg" xmlns:xlink="http://www.w3.org/1999/xlink" x="0px" y="0px"
	 viewBox="0 0 150 150" width="100px" height="100px" style="enable-background:new 0 0 150 150;" xml:space="preserve">
<style type="text/css">
	.st0{fill:#FFFFFF;}
</style>
<g id="XMLID_318_">
	<g id="XMLID_179_">
		<g id="XMLID_184_">
			<g id="XMLID_199_">
				<g id="XMLID_200_">
					<path id="XMLID_201_" class="st0" d="M31.1,81.7c-2.9,0-5.6-1-7.4-3.4v16.6h-7V57.8h7v2.9c1.8-2.3,4.4-3.4,7.4-3.4
						c6.9,0,11.3,5.6,11.3,12.2C42.4,76.1,38,81.7,31.1,81.7z M29.5,63.1c-2.3,0-4.3,1.4-5.3,3.3c-0.1,0.1-0.4,0.9-0.4,1v4.1
						c0,0.2,0.4,0.9,0.4,1c1,2,3,3.3,5.3,3.3c3.4,0,6-3,6-6.4C35.5,66.1,32.9,63.1,29.5,63.1z"/>
				</g>
			</g>
			<g id="XMLID_194_">
				<g id="XMLID_195_">
					<path id="XMLID_196_" class="st0" d="M63.6,81.7c-2.9,0-5.6-1-7.4-3.4v16.6h-7V57.8h7v2.9c1.8-2.3,4.4-3.4,7.4-3.4
						c6.9,0,11.3,5.6,11.3,12.2C74.9,76.1,70.5,81.7,63.6,81.7z M61.9,63.1c-2.3,0-4.3,1.4-5.3,3.3c-0.1,0.1-0.4,0.9-0.4,1v4.1
						c0,0.2,0.4,0.9,0.4,1c1,2,3,3.3,5.3,3.3c3.4,0,6-3,6-6.4C67.9,66.1,65.4,63.1,61.9,63.1z"/>
				</g>
			</g>
			<g id="XMLID_190_">
				<g id="XMLID_191_">
					<path id="XMLID_192_" class="st0" d="M103.8,70H95v8.7h-7.1V70h-8.7v-7.1h8.7v-8.7H95v8.7h8.7V70z"/>
				</g>
			</g>
			<g id="XMLID_185_">
				<g id="XMLID_186_">
					<path id="XMLID_187_" class="st0" d="M133.7,85.6c0,4.5-3.3,9.8-8.4,9.8l-2.6-5.8c2.1,0,4-1.9,4-4v-7.2
						c-1.8,2.3-4.4,3.4-7.4,3.4c-6.9,0-11.3-5.6-11.3-12.2c0-6.6,4.4-12.2,11.3-12.2c2.9,0,5.5,1,7.4,3.4v-2.9h7V85.6z M126.7,67.5
						c0-0.1-0.4-0.9-0.4-1c-1-2-3-3.3-5.3-3.3c-3.4,0-6,3-6,6.4c0,3.4,2.6,6.4,6,6.4c2.3,0,4.3-1.4,5.3-3.3c0.1-0.1,0.4-0.9,0.4-1
						V67.5z"/>
				</g>
			</g>
		</g>
		<g id="XMLID_180_">
			<path id="XMLID_181_" class="st0" d="M38.7,137.8c-34.6-20-46.5-64.4-26.5-99.1c20-34.6,64.4-46.5,99.1-26.5
				c34.6,20,46.5,64.4,26.5,99.1C117.8,145.9,73.4,157.8,38.7,137.8z M108.9,16.3C76.5-2.4,35,8.7,16.3,41.1s-7.6,74,24.8,92.7
				s74,7.6,92.7-24.8S141.3,35,108.9,16.3z"/>
		</g>
	</g>
</g>
</svg>
